# This file uses meters as units for non-parametric coordinates.

mtllib Asset_Skill.mtl
g default
v -11.830480 -1.174599 10.649282
v -10.649282 -1.174599 11.830480
v -11.830480 7.443752 10.649282
v -10.649282 7.443752 11.830480
v 11.830480 -1.174599 10.649282
v 10.649282 -1.174599 11.830480
v 10.649282 7.443752 11.830480
v 11.830480 7.443752 10.649282
v -10.649282 7.443752 -11.830480
v -11.830480 7.443752 -10.649282
v -11.830480 -1.174599 -10.649282
v -10.649282 -1.174599 -11.830480
v 11.830480 7.443752 -10.649282
v 10.649282 7.443752 -11.830480
v 11.830480 -1.174599 -10.649282
v 10.649282 -1.174599 -11.830480
v -8.218209 7.443752 7.037011
v -7.037011 7.443752 8.218209
v 7.037011 7.443752 8.218209
v 8.218209 7.443752 7.037011
v 8.218209 7.443752 -7.037011
v 7.037011 7.443752 -8.218209
v -7.037011 7.443752 -8.218209
v -8.218209 7.443752 -7.037011
v -8.218209 8.740421 7.037011
v -7.037011 8.740421 8.218209
v 7.037011 8.740421 8.218209
v 8.218209 8.740421 7.037011
v 8.218209 8.740421 -7.037011
v 7.037011 8.740421 -8.218209
v -7.037011 8.740421 -8.218209
v -8.218209 8.740421 -7.037011
v -4.014780 8.740421 2.833581
v -2.833581 8.740421 4.014780
v 2.833581 8.740421 4.014780
v 4.014780 8.740421 2.833581
v 4.014780 8.740421 -2.833581
v 2.833581 8.740421 -4.014780
v -2.833581 8.740421 -4.014780
v -4.014780 8.740421 -2.833581
v -1.312574 16.164665 0.131376
v -0.131376 16.164665 1.312574
v 1.312574 16.164665 0.131376
v 0.131376 16.164665 1.312574
v 0.131376 16.164665 -1.312574
v 1.312574 16.164665 -0.131376
v -1.312574 16.164665 -0.131376
v -0.131376 16.164665 -1.312574
vt 0.856467 0.463543
vt 0.679516 0.463543
vt 0.679516 0.026244
vt 0.856467 0.026244
vt 0.679516 0.487795
vt 0.856467 0.487795
vt 0.856467 0.001992
vt 0.679516 0.001992
vt 0.178917 0.463543
vt 0.001967 0.463543
vt 0.001967 0.026244
vt 0.178917 0.026244
vt 0.178917 0.487795
vt 0.001967 0.487795
vt 0.001967 0.001992
vt 0.178917 0.001992
vt 0.560069 0.804953
vt 0.560069 0.515988
vt 0.586692 0.515988
vt 0.586692 0.804953
vt 0.560069 0.491736
vt 0.586692 0.491736
vt 0.560069 0.829205
vt 0.586692 0.829205
vt 0.592750 0.804953
vt 0.592750 0.515988
vt 0.619373 0.515988
vt 0.619373 0.804953
vt 0.592750 0.491736
vt 0.619373 0.491736
vt 0.592750 0.829205
vt 0.619373 0.829205
vt 0.161877 0.973756
vt 0.161877 0.857399
vt 0.314310 0.912880
vt 0.314310 0.918275
vt 0.161877 0.833146
vt 0.314310 0.888628
vt 0.161877 0.998008
vt 0.314310 0.942527
vt 0.001967 0.925252
vt 0.001967 0.808894
vt 0.154400 0.864376
vt 0.154400 0.869770
vt 0.001967 0.784642
vt 0.154400 0.840123
vt 0.001967 0.949504
vt 0.154400 0.894022
vt 0.567906 0.962622
vt 0.567906 0.957227
vt 0.592158 0.932975
vt 0.592158 0.986874
vt 0.597553 0.932975
vt 0.597553 0.986874
vt 0.621805 0.957227
vt 0.621805 0.962622
vt 0.186893 0.026244
vt 0.211145 0.001992
vt 0.285312 0.076159
vt 0.261059 0.100411
vt 0.648444 0.001992
vt 0.574277 0.076159
vt 0.186893 0.463543
vt 0.261059 0.389376
vt 0.672696 0.026244
vt 0.598529 0.100411
vt 0.211145 0.487795
vt 0.285312 0.413628
vt 0.672696 0.463543
vt 0.598529 0.389376
vt 0.648444 0.487795
vt 0.574277 0.413628
vt 0.216541 0.515988
vt 0.240794 0.491736
vt 0.327098 0.578040
vt 0.302846 0.602292
vt 0.529759 0.491736
vt 0.443455 0.578040
vt 0.216541 0.804953
vt 0.302846 0.718649
vt 0.554011 0.515988
vt 0.467707 0.602292
vt 0.240794 0.829205
vt 0.327098 0.742901
vt 0.554011 0.804953
vt 0.467707 0.718649
vt 0.529759 0.829205
vt 0.443455 0.742901
vt 0.985389 0.929034
vt 0.808439 0.929034
vt 0.808439 0.491736
vt 0.985389 0.491736
vt 0.625430 0.929034
vt 0.625430 0.491736
vt 0.802381 0.491736
vt 0.802381 0.929034
vt 0.183861 0.780701
vt 0.183861 0.491736
vt 0.210484 0.491736
vt 0.210484 0.780701
vt 0.177803 0.491736
vt 0.177803 0.780701
vt 0.151180 0.780701
vt 0.151180 0.491736
vt 0.321595 0.833146
vt 0.437952 0.833146
vt 0.382471 0.985580
vt 0.377076 0.985580
vt 0.561108 0.985580
vt 0.444750 0.985580
vt 0.500232 0.833146
vt 0.505626 0.833146
vn 0.000000 1.000000 0.000000
vn 0.000000 1.000000 0.000000
vn 0.000000 1.000000 0.000000
vn 0.000000 1.000000 0.000000
vn 0.000000 1.000000 0.000000
vn 0.000000 1.000000 0.000000
vn 0.000000 1.000000 0.000000
vn 0.000000 1.000000 0.000000
vn -0.707107 0.000000 0.707107
vn -0.707107 0.000000 0.707107
vn -0.707107 0.000000 0.707107
vn -0.707107 0.000000 0.707107
vn 0.000000 1.000000 -0.000000
vn 0.000000 1.000000 -0.000000
vn 0.000000 1.000000 0.000000
vn 0.000000 1.000000 -0.000000
vn 0.707107 0.000000 0.707107
vn 0.707107 0.000000 0.707107
vn 0.707107 0.000000 0.707107
vn 0.707107 0.000000 0.707107
vn 0.000000 1.000000 -0.000000
vn 0.000000 1.000000 -0.000000
vn 0.000000 1.000000 -0.000000
vn 0.000000 1.000000 0.000000
vn 0.000000 1.000000 0.000000
vn 0.000000 1.000000 0.000000
vn 0.000000 1.000000 0.000000
vn 0.000000 1.000000 -0.000000
vn -0.707107 0.000000 -0.707107
vn -0.707107 0.000000 -0.707107
vn -0.707107 0.000000 -0.707107
vn -0.707107 0.000000 -0.707107
vn 0.000000 1.000000 0.000000
vn 0.000000 1.000000 0.000000
vn 0.000000 1.000000 -0.000000
vn 0.000000 1.000000 0.000000
vn 0.707107 0.000000 -0.707107
vn 0.707107 0.000000 -0.707107
vn 0.707107 0.000000 -0.707107
vn 0.707107 0.000000 -0.707107
vn -0.707107 0.000000 0.707107
vn -0.707107 0.000000 0.707107
vn -0.707107 0.000000 0.707107
vn -0.707107 0.000000 0.707107
vn 0.707107 0.000000 0.707107
vn 0.707107 0.000000 0.707107
vn 0.707107 0.000000 0.707107
vn 0.707107 0.000000 0.707107
vn 0.707107 0.000000 -0.707107
vn 0.707107 0.000000 -0.707107
vn 0.707107 0.000000 -0.707107
vn 0.707107 0.000000 -0.707107
vn -0.707107 0.000000 -0.707107
vn -0.707107 0.000000 -0.707107
vn -0.707107 0.000000 -0.707107
vn -0.707107 0.000000 -0.707107
vn 0.000000 1.000000 0.000000
vn 0.000000 1.000000 -0.000000
vn 0.000000 1.000000 -0.000000
vn 0.000000 1.000000 0.000000
vn 0.000000 1.000000 -0.000000
vn 0.000000 1.000000 0.000000
vn 0.000000 1.000000 0.000000
vn 0.000000 1.000000 -0.000000
vn 0.000000 1.000000 0.000000
vn 0.000000 1.000000 0.000000
vn 0.000000 1.000000 0.000000
vn 0.000000 1.000000 0.000000
vn 0.000000 1.000000 0.000000
vn 0.000000 1.000000 0.000000
vn 0.000000 1.000000 0.000000
vn 0.000000 1.000000 0.000000
vn -0.628707 0.457662 0.628707
vn -0.628707 0.457662 0.628707
vn -0.628707 0.457662 0.628707
vn -0.628707 0.457662 0.628707
vn 0.628707 0.457662 0.628707
vn 0.628707 0.457662 0.628707
vn 0.628707 0.457662 0.628707
vn 0.628707 0.457662 0.628707
vn 0.628707 0.457662 -0.628707
vn 0.628707 0.457662 -0.628707
vn 0.628707 0.457662 -0.628707
vn 0.628707 0.457662 -0.628707
vn -0.628707 0.457662 -0.628707
vn -0.628707 0.457662 -0.628707
vn -0.628707 0.457662 -0.628707
vn -0.628707 0.457662 -0.628707
vn 0.000000 0.000000 1.000000
vn 0.000000 0.000000 1.000000
vn 0.000000 0.000000 1.000000
vn 0.000000 0.000000 1.000000
vn 0.000000 0.000000 -1.000000
vn 0.000000 0.000000 -1.000000
vn 0.000000 0.000000 -1.000000
vn 0.000000 0.000000 -1.000000
vn 1.000000 0.000000 0.000000
vn 1.000000 0.000000 0.000000
vn 1.000000 0.000000 0.000000
vn 1.000000 0.000000 0.000000
vn -1.000000 0.000000 0.000000
vn -1.000000 0.000000 0.000000
vn -1.000000 0.000000 0.000000
vn -1.000000 0.000000 0.000000
vn 0.000000 0.000000 1.000000
vn 0.000000 0.000000 1.000000
vn 0.000000 0.000000 1.000000
vn 0.000000 0.000000 1.000000
vn 1.000000 0.000000 0.000000
vn 1.000000 0.000000 0.000000
vn 1.000000 0.000000 0.000000
vn 1.000000 0.000000 0.000000
vn 0.000000 0.000000 -1.000000
vn 0.000000 0.000000 -1.000000
vn 0.000000 0.000000 -1.000000
vn 0.000000 0.000000 -1.000000
vn -1.000000 0.000000 0.000000
vn -1.000000 0.000000 0.000000
vn -1.000000 0.000000 0.000000
vn -1.000000 0.000000 0.000000
vn 0.000000 0.342020 0.939693
vn 0.000000 0.342020 0.939693
vn 0.000000 0.342020 0.939693
vn 0.000000 0.342020 0.939693
vn 0.939693 0.342020 0.000000
vn 0.939693 0.342020 0.000000
vn 0.939693 0.342020 0.000000
vn 0.939693 0.342020 0.000000
vn 0.000000 0.342020 -0.939693
vn 0.000000 0.342020 -0.939693
vn 0.000000 0.342020 -0.939693
vn 0.000000 0.342020 -0.939693
vn -0.939693 0.342020 0.000000
vn -0.939693 0.342020 0.000000
vn -0.939693 0.342020 0.000000
vn -0.939693 0.342020 0.000000
s 1
g pCube38
usemtl initialShadingGroup
f 47/49/1 41/50/2 42/51/3 48/52/4
f 48/52/4 42/51/3 44/53/5 45/54/6
f 44/53/5 43/55/7 46/56/8 45/54/6
s off
f 1/11/9 2/15/10 4/16/11 3/12/12
s 2
f 3/57/13 4/58/14 18/59/15 17/60/16
s off
f 6/5/17 5/2/18 8/1/19 7/6/20
s 2
f 7/61/21 8/65/22 20/66/23 19/62/24
f 9/67/25 10/63/26 24/64/27 23/68/28
s off
f 10/9/29 9/13/30 12/14/31 11/10/32
s 2
f 13/69/33 14/71/34 22/72/35 21/70/36
s off
f 14/7/37 13/4/38 15/3/39 16/8/40
f 17/26/41 18/29/42 26/30/43 25/27/44
f 19/23/45 20/17/46 28/20/47 27/24/48
f 21/18/49 22/21/50 30/22/51 29/19/52
f 23/31/53 24/25/54 32/28/55 31/32/56
s 4
f 25/73/57 26/74/58 34/75/59 33/76/60
f 27/77/61 28/81/62 36/82/63 35/78/64
f 29/85/65 30/87/66 38/88/67 37/86/68
f 31/83/69 32/79/70 40/80/71 39/84/72
s off
f 33/42/73 34/45/74 42/46/75 41/43/76
f 35/39/77 36/33/78 43/36/79 44/40/80
f 37/34/81 38/37/82 45/38/83 46/35/84
f 39/47/85 40/41/86 47/44/87 48/48/88
f 4/89/89 2/90/90 6/91/91 7/92/92
f 9/93/93 14/94/94 16/95/95 12/96/96
f 8/1/97 5/2/98 15/3/99 13/4/100
f 10/9/101 11/10/102 1/11/103 3/12/104
s 2
f 4/58/14 7/61/21 19/62/24 18/59/15
f 8/65/22 13/69/33 21/70/36 20/66/23
f 14/71/34 9/67/25 23/68/28 22/72/35
f 10/63/26 3/57/13 17/60/16 24/64/27
s off
f 18/97/105 19/98/106 27/99/107 26/100/108
f 20/17/109 21/18/110 29/19/111 28/20/112
f 22/101/113 23/102/114 31/103/115 30/104/116
f 24/25/117 17/26/118 25/27/119 32/28/120
s 4
f 26/74/58 27/77/61 35/78/64 34/75/59
f 28/81/62 29/85/65 37/86/68 36/82/63
f 30/87/66 31/83/69 39/84/72 38/88/67
f 32/79/70 25/73/57 33/76/60 40/80/71
s off
f 34/105/121 35/106/122 44/107/123 42/108/124
f 36/33/125 37/34/126 46/35/127 43/36/128
f 38/109/129 39/110/130 48/111/131 45/112/132
f 40/41/133 33/42/134 41/43/135 47/44/136
