# This file uses meters as units for non-parametric coordinates.

mtllib Asst_BrickWall.mtl
g default
v -20.646723 -2.349808 171.415939
v 20.646723 -2.349728 171.415939
v -20.646723 33.770592 139.771652
v -20.646723 87.363617 -187.964554
v -20.646723 1.298481 -187.964554
v 20.646723 1.298405 -187.964554
v 20.646723 65.185471 62.892548
v 20.646723 1.298405 88.035385
v -20.646723 1.298386 88.035385
v -20.646723 1.298481 -113.570259
v 20.646723 1.298405 -113.570259
v 20.646723 1.298405 -29.399601
v -20.646723 1.298481 -29.399601
v 20.646723 44.325226 107.117828
v 20.646723 0.761425 138.762115
v -20.646723 0.761345 138.762115
v -20.646721 1.298481 -151.644806
v 20.646721 1.298405 -151.644806
v 20.646723 74.988228 -151.644806
v -175.790924 1.298481 -151.644806
v -175.790939 85.541412 -151.644806
v -20.646723 19.650248 148.378677
v 20.646723 19.650269 148.378677
v 20.646723 27.860680 115.724846
v 20.646723 47.808636 69.731224
v 20.646723 72.411018 -29.399601
v 20.646723 48.419617 -113.570259
v 20.646723 48.419617 -151.644806
v 20.646723 63.636246 -187.964554
v -20.646723 67.657806 -187.964554
v -175.790924 58.972820 -151.644806
v -20.646721 62.472904 -151.644806
v -20.646723 66.421112 -113.570251
v -20.646723 72.411041 -29.399601
v -20.646723 27.860661 115.724854
v -43.567108 1.298485 -187.964554
v -43.567104 1.298485 -151.644806
v -43.567108 48.280396 -151.644806
v -43.567108 57.040127 -151.644806
v -43.567108 57.040127 -187.964554
v -43.567108 48.280396 -187.964554
v -64.434410 38.042881 -151.644806
v -64.434402 1.298485 -151.644806
v -64.434410 1.298485 -187.964539
v -64.434410 38.042881 -187.964539
v -64.434410 42.685955 -187.964539
v -64.434410 42.685955 -151.644806
v -89.643967 38.042881 -151.644806
v -89.643959 1.298485 -151.644806
v -89.643967 1.298485 -187.964539
v -89.643967 38.042881 -187.964539
v -89.643967 42.685955 -187.964539
v -89.643967 42.685955 -151.644806
v -158.692993 61.346146 -151.644806
v -158.692993 1.298481 -151.644806
v -158.693008 1.298481 -187.964554
v -158.693008 61.346146 -187.964554
v -158.693008 87.914734 -151.644806
v 2.064672 33.770592 139.771652
v 2.064672 88.926300 -187.964554
v 20.646723 38.520176 125.077431
v 20.646723 78.248978 -187.964554
v 20.646723 83.772263 12.131863
v 20.646723 74.988228 -130.703796
v 2.064672 82.842148 -113.570259
v 20.646723 88.183502 -67.276398
v 20.646723 85.784363 -75.693466
v 2.064672 98.979630 -29.399601
v 20.646723 87.023758 -29.399601
v 20.646723 83.357376 -171.620667
v -175.790939 1.298481 -171.620667
v -175.790939 85.541412 -171.620667
v -175.790939 73.585541 -187.964554
v -175.790939 70.928680 -187.964554
v 20.646723 27.416445 143.644806
v 20.646723 63.032352 -113.570259
v -175.790939 33.019371 -187.964554
v -175.790939 27.251932 -187.964554
v -175.790939 58.972820 -171.620667
v -127.620941 67.561783 -187.964554
v -168.096863 1.298481 -187.964554
v -168.096863 60.040817 -187.964554
v -166.387085 86.846741 -187.964554
v -168.096863 86.609406 -187.964554
v -158.693008 75.958870 -187.964554
v -158.693008 87.914734 -171.620667
v -20.646723 39.575638 121.812050
v -20.646723 80.392838 21.361084
v -20.646723 83.772263 12.131863
v -2.064672 65.185471 62.892548
v -20.646723 26.879021 77.968094
v -20.646723 88.033340 -130.703796
v -20.646723 87.053772 -134.511261
v -20.646723 80.732269 -113.570259
v -20.646723 96.037430 -67.276398
v -20.646723 95.383606 -75.693466
v -10.426595 98.979630 -29.399601
v -20.646723 53.712334 87.216454
v -20.646723 55.798363 82.793922
v -2.064672 44.325226 107.117828
v -20.646723 84.768784 -167.988693
v -2.064672 79.199852 -151.644806
v -20.646723 73.567955 -151.644806
v -30.960896 71.123207 -151.644806
v -20.646723 87.023766 -29.399601
v -20.646723 55.628208 66.653816
v -20.646723 57.365894 65.969955
v -20.646723 36.916172 110.990990
v -20.646723 58.879715 25.122353
v -20.646723 38.832047 90.428360
v -10.426595 88.121735 -113.570259
vt 0.098098 0.474762
vt 0.091706 0.543363
vt 0.061496 0.559156
vt 0.012756 0.508348
vt 0.129983 0.462213
vt 0.081055 0.576317
vt 0.046430 0.619072
vt 0.001992 0.601427
vt 0.012756 0.292866
vt 0.143241 0.292866
vt 0.060680 0.610386
vt 0.006062 0.661343
vt 0.099219 0.138421
vt 0.012756 0.138421
vt 0.170054 0.292866
vt 0.164088 0.369072
vt 0.126032 0.138421
vt 0.012756 0.068558
vt 0.099219 0.068558
vt 0.191992 0.292866
vt 0.147970 0.068558
vt 0.167780 0.207921
vt 0.172182 0.223366
vt 0.012756 0.001914
vt 0.127140 0.001914
vt 0.153953 0.001914
vt 0.147970 0.106982
vt 0.162381 0.138421
vt 0.163327 0.031904
vt 0.526594 0.821872
vt 0.526594 0.797975
vt 0.556584 0.819913
vt 0.556584 0.771162
vt 0.526594 0.793100
vt 0.593237 0.771162
vt 0.593237 0.819913
vt 0.526594 0.773122
vt 0.593237 0.665335
vt 0.556584 0.665335
vt 0.526594 0.723540
vt 0.526594 0.712957
vt 0.526594 0.665335
vt 0.578148 0.524837
vt 0.697642 0.524837
vt 0.690397 0.594700
vt 0.578148 0.594700
vt 0.578148 0.370392
vt 0.723901 0.524837
vt 0.710755 0.594700
vt 0.708633 0.370392
vt 0.735445 0.370392
vt 0.751985 0.439892
vt 0.737298 0.556275
vt 0.735501 0.563262
vt 0.683804 0.270349
vt 0.729479 0.294186
vt 0.757383 0.370392
vt 0.750785 0.455337
vt 0.737460 0.524837
vt 0.731308 0.624690
vt 0.578148 0.154910
vt 0.625086 0.173382
vt 0.723278 0.277251
vt 0.626887 0.104102
vt 0.647018 0.150519
vt 0.677838 0.194143
vt 0.681026 0.195398
vt 0.567383 0.061831
vt 0.611821 0.044186
vt 0.643503 0.112788
vt 0.674322 0.156412
vt 0.678150 0.164527
vt 0.571453 0.001914
vt 0.637731 0.059979
vt 0.648383 0.092933
vt 0.559476 0.631354
vt 0.559476 0.661343
vt 0.525379 0.661343
vt 0.517802 0.594700
vt 0.483706 0.661343
vt 0.559476 0.594700
vt 0.559476 0.556275
vt 0.483706 0.624690
vt 0.525379 0.524837
vt 0.502459 0.524837
vt 0.483706 0.563262
vt 0.441649 0.594700
vt 0.464780 0.594700
vt 0.483706 0.556275
vt 0.559476 0.455337
vt 0.441649 0.661343
vt 0.483706 0.594700
vt 0.483706 0.455337
vt 0.559476 0.439892
vt 0.403360 0.594700
vt 0.403360 0.661343
vt 0.483706 0.439892
vt 0.502459 0.370392
vt 0.357103 0.594700
vt 0.357103 0.661343
vt 0.525379 0.370392
vt 0.230404 0.594700
vt 0.230404 0.631354
vt 0.559476 0.294186
vt 0.483706 0.294186
vt 0.287418 0.661343
vt 0.199031 0.594700
vt 0.483706 0.277251
vt 0.230404 0.661343
vt 0.216286 0.661343
vt 0.213149 0.661343
vt 0.517802 0.201045
vt 0.559476 0.201045
vt 0.199031 0.631354
vt 0.483706 0.195398
vt 0.483706 0.164527
vt 0.517802 0.119895
vt 0.559476 0.119895
vt 0.483706 0.156412
vt 0.559476 0.086941
vt 0.525379 0.059979
vt 0.483706 0.112788
vt 0.483706 0.059979
vt 0.483706 0.092933
vt 0.559476 0.052872
vt 0.483706 0.044186
vt 0.559476 0.044186
vt 0.483706 0.001914
vt 0.559476 0.001914
vt 0.764227 0.226223
vt 0.764227 0.071778
vt 0.839997 0.071778
vt 0.839997 0.226223
vt 0.764227 0.001914
vt 0.839997 0.001914
vt 0.764227 0.441705
vt 0.839997 0.441705
vt 0.764227 0.534784
vt 0.839997 0.534784
vt 0.764227 0.594700
vt 0.839997 0.594700
vt 0.831084 0.674461
vt 0.764441 0.674461
vt 0.764441 0.598692
vt 0.831084 0.598692
vt 0.764441 0.716518
vt 0.831084 0.716518
vt 0.764441 0.754807
vt 0.831084 0.754807
vt 0.764441 0.801065
vt 0.831084 0.801065
vt 0.764441 0.927763
vt 0.831084 0.927763
vt 0.831084 0.959136
vt 0.764441 0.945018
vt 0.794430 0.959136
vt 0.675315 0.709027
vt 0.666795 0.709027
vt 0.685580 0.670738
vt 0.701653 0.670738
vt 0.675315 0.755285
vt 0.666795 0.755285
vt 0.599373 0.670738
vt 0.599373 0.628681
vt 0.711622 0.628681
vt 0.731980 0.628681
vt 0.758305 0.881983
vt 0.709554 0.881983
vt 0.599373 0.755285
vt 0.599373 0.709027
vt 0.727494 0.647607
vt 0.753950 0.913356
vt 0.705200 0.913356
vt 0.599373 0.881983
vt 0.599373 0.913356
vt 0.922066 0.754807
vt 0.895727 0.716518
vt 0.911801 0.716518
vt 0.930585 0.754807
vt 0.840087 0.674461
vt 0.876245 0.674461
vt 0.998008 0.716518
vt 0.998008 0.754807
vt 0.922066 0.801065
vt 0.930585 0.801065
vt 0.883624 0.598692
vt 0.998008 0.674461
vt 0.998008 0.801065
vt 0.887826 0.927763
vt 0.861013 0.927763
vt 0.998008 0.598692
vt 0.856811 0.598692
vt 0.837219 0.632788
vt 0.998008 0.927763
vt 0.890221 0.945018
vt 0.876421 0.870749
vt 0.998008 0.945018
vt 0.950386 0.959136
vt 0.841470 0.945018
vt 0.865368 0.959136
vt 0.939803 0.959136
vt 0.841035 0.941881
vt 0.870243 0.959136
vn 0.520800 0.852090 0.052060
vn 0.458425 0.870863 -0.177325
vn 0.991150 0.129990 -0.026919
vn 0.673900 0.724595 -0.144292
vn 0.246108 0.950186 0.191251
vn 0.785848 0.132673 -0.604021
vn 0.023065 0.948441 -0.316114
vn -0.000001 -1.000000 -0.000000
vn -0.000002 -1.000000 0.000000
vn -0.000002 -1.000000 0.000000
vn -0.000001 -1.000000 -0.000000
vn -0.409471 0.903517 -0.126452
vn -0.992695 0.119549 -0.016263
vn 0.142564 0.976461 -0.161865
vn 0.138750 0.980146 -0.141638
vn 1.000000 -0.000000 0.000000
vn 1.000000 -0.000000 0.000000
vn 1.000000 -0.000000 0.000000
vn 1.000000 -0.000000 0.000000
vn 1.000000 0.000000 0.000000
vn 0.000001 -0.999044 -0.043711
vn -0.000000 -0.999995 -0.003194
vn -0.000000 -0.999995 -0.003194
vn 0.000001 -0.999044 -0.043711
vn -0.711251 0.652584 0.261260
vn -0.485703 0.796725 0.359614
vn -0.063075 0.924772 0.375259
vn -0.529909 0.795552 0.293759
vn -0.000002 -1.000000 0.000000
vn -0.000002 -1.000000 0.000000
vn 0.611289 0.746676 0.262300
vn 0.959190 0.282321 0.015808
vn 0.140401 0.969645 0.200190
vn 0.639422 0.762250 -0.100571
vn 0.876809 0.357877 0.321138
vn 0.396623 0.865289 0.306538
vn 0.013867 0.796807 0.604075
vn 0.000002 -0.995492 -0.094847
vn 0.000002 -0.995492 -0.094847
vn -0.136231 0.953991 0.267101
vn -0.023370 0.920219 0.390707
vn -0.924883 0.360359 0.121379
vn -0.196521 0.876552 0.439359
vn -0.000002 -1.000000 0.000000
vn -0.000002 -1.000000 0.000000
vn -0.298141 0.797708 -0.524189
vn -0.767214 0.078644 -0.636551
vn -0.976190 0.214722 -0.030778
vn 0.000000 -1.000000 -0.000000
vn -0.000000 -1.000000 -0.000000
vn -0.000000 -1.000000 -0.000000
vn 0.000000 -1.000000 -0.000000
vn 0.000000 0.000000 1.000000
vn 0.000000 0.000000 1.000000
vn 0.000000 0.000000 1.000000
vn 0.000000 0.000000 1.000000
vn -0.297428 0.954744 0.000000
vn -0.655921 0.754700 0.013999
vn -0.674263 0.738491 0.000000
vn -0.297428 0.954744 0.000000
vn -0.000001 0.000000 -1.000000
vn -0.000000 0.000000 -1.000000
vn -0.000001 0.000000 -1.000000
vn -0.000000 0.000000 -1.000000
vn -0.000001 0.669696 0.742635
vn -0.000001 0.723200 0.690639
vn -0.000001 0.723200 0.690639
vn -0.000001 0.690011 0.723799
vn 1.000000 0.000000 0.000000
vn 1.000000 0.000000 0.000000
vn 1.000000 0.000000 0.000000
vn 1.000000 0.000000 0.000000
vn 1.000000 0.000000 0.000000
vn 1.000000 -0.000000 -0.000000
vn 1.000000 -0.000000 -0.000000
vn 1.000000 -0.000000 0.000000
vn 1.000000 -0.000000 0.000000
vn 1.000000 -0.000000 0.000000
vn 1.000000 -0.000000 0.000000
vn 0.000001 0.000000 -1.000000
vn 0.000000 0.000000 -1.000000
vn 0.000001 0.000000 -1.000000
vn 0.000001 0.000000 -1.000000
vn -0.000000 0.000000 -1.000000
vn -0.000000 0.000000 -1.000000
vn 0.000000 0.000000 -1.000000
vn -0.207772 -0.652458 -0.728787
vn -0.992079 -0.117107 -0.045439
vn -0.727741 -0.019440 -0.685576
vn 0.000000 0.000000 1.000000
vn 0.000000 0.000000 1.000000
vn 0.000000 0.000000 1.000000
vn 0.000000 0.000000 1.000000
vn -1.000000 -0.000000 -0.000000
vn -1.000000 -0.000000 -0.000000
vn -1.000000 -0.000000 -0.000000
vn -1.000000 0.000000 -0.000000
vn -1.000000 -0.000000 0.000000
vn -1.000000 0.000000 0.000000
vn -0.991828 0.126084 0.019475
vn -1.000000 -0.000000 0.000000
vn -1.000000 -0.000000 0.000000
vn -1.000000 0.000000 0.000000
vn -1.000000 -0.000000 0.000000
vn -1.000000 -0.000000 0.000000
vn -1.000000 -0.000000 0.000000
vn -1.000000 -0.000000 0.000000
vn -1.000000 -0.000000 0.000000
vn -1.000000 0.000000 0.000000
vn -0.000000 -1.000000 0.000000
vn -0.000000 -1.000000 0.000000
vn 0.000000 0.000000 1.000000
vn 0.000000 0.000000 -1.000000
vn -0.000000 0.000000 -1.000000
vn -0.000001 0.000000 -1.000000
vn -0.000000 0.000000 1.000000
vn 0.000000 -1.000000 0.000000
vn 0.000000 -1.000000 0.000000
vn 0.000000 0.000000 -1.000000
vn 0.000000 0.000000 -1.000000
vn 0.000001 -0.000000 -1.000000
vn 0.406763 0.913534 0.000000
vn 0.394416 0.918932 -0.000000
vn -0.000000 0.000000 1.000000
vn 0.000000 0.000000 1.000000
vn 0.000000 0.000000 1.000000
vn 0.000000 -1.000000 0.000000
vn 0.000000 -1.000000 0.000000
vn 0.000000 0.000000 -1.000000
vn 0.000000 0.000000 -1.000000
vn 0.089071 0.985905 -0.141627
vn 0.469041 0.882264 -0.040131
vn 0.114932 0.272121 -0.955375
vn 0.434019 0.719196 -0.542573
vn 0.000000 0.000000 1.000000
vn 0.000000 0.000000 1.000000
vn 0.000000 0.000000 1.000000
vn 0.000000 0.000000 1.000000
vn -0.000000 0.520478 0.853875
vn 1.000000 0.000000 0.000000
vn 0.000000 -1.000000 0.000000
vn -0.996053 0.026340 -0.084762
vn -0.999104 0.007662 -0.041628
vn -0.276145 0.000984 -0.961116
vn -0.987130 -0.106712 -0.119110
vn -1.000000 0.000000 0.000001
vn -1.000000 -0.000000 0.000001
vn -1.000000 -0.000000 0.000000
vn 0.508728 0.860927 0.000000
vn -0.137489 0.990503 0.000000
vn -0.669582 0.700919 0.245709
vn -0.233868 0.957816 0.167016
vn -0.653377 0.752953 -0.078485
vn 0.183461 0.979331 0.085162
vn -0.487215 0.868201 0.094068
vn -0.402904 0.904888 -0.137282
vn -0.966457 0.100829 0.236209
vn -0.698464 0.675682 0.235802
vn -0.000000 0.925851 0.377889
vn -1.000000 0.000000 0.000000
vn 0.000000 0.922008 0.387171
vn -0.000000 0.951529 0.307561
vn 0.178753 0.963937 0.197164
vn 0.008665 0.969082 0.246586
vn -0.776801 0.628787 0.034759
s 1
g pCube28
usemtl initialShadingGroup
f 64/27/1 65/28/2 76/17/3
f 76/17/3 65/28/2 67/22/4
f 70/76/5 62/77/6 60/78/7
s 3
f 13/130/8 10/131/9 11/132/10 12/133/11
s 1
f 92/53/12 94/48/13 111/59/14
f 111/59/14 94/48/13 96/58/15
f 25/1/16 14/2/17 24/3/18 8/4/19
f 14/2/17 25/1/16 7/5/20
s 3
f 16/138/21 9/136/22 8/137/23 15/139/24
s 1
f 107/115/25 99/116/26 90/112/27 88/108/28
s 3
f 10/131/9 17/134/29 18/135/30 11/132/10
s 1
f 63/16/31 69/15/32 68/20/33
f 68/20/33 69/15/32 66/23/34
s 3
f 9/136/22 13/130/8 12/133/11 8/137/23
s 1
f 75/125/35 61/120/36 59/121/37
s 3
f 1/140/38 16/138/21 15/139/24 2/141/39
s 1
f 87/124/40 100/117/41 108/122/42
f 108/122/42 100/117/41 98/119/43
s 3
f 17/142/29 5/143/44 6/144/45 18/145/30
s 1
f 84/30/46 73/31/47 72/32/48
f 44/148/49 36/146/50 37/147/51 43/149/52
f 47/157/53 42/158/54 38/159/55 39/160/56
f 47/95/57 39/87/58 40/91/59 46/96/60
f 46/176/61 40/177/62 41/178/63 45/179/64
f 22/126/65 1/128/66 2/129/67 23/127/68
f 2/12/69 15/8/70 23/7/71
f 24/3/18 23/7/71 15/8/70 8/4/19
f 25/1/16 12/9/72 26/10/73 7/5/20
f 12/9/72 25/1/16 8/4/19
f 27/13/74 26/10/73 12/9/72 11/14/75
f 18/18/76 28/19/77 27/13/74 11/14/75
f 6/24/78 29/25/79 28/19/77 18/18/76
f 29/186/80 5/187/81 30/181/82 4/180/83
f 5/187/81 29/186/80 6/191/84
f 36/182/85 44/183/86 45/179/64 41/178/63
f 81/42/87 71/39/88 78/41/89
f 38/159/55 42/158/54 37/163/90 17/164/91
f 43/170/92 37/163/90 42/158/54 49/169/93
f 10/43/94 33/44/95 32/45/96 17/46/97
f 33/44/95 13/47/98 34/50/99 105/51/100
f 13/47/98 33/44/95 10/43/94
f 109/55/101 91/62/102 106/66/103
f 106/66/103 91/62/102 110/65/104 99/72/26
f 16/68/105 22/69/106 35/64/107 9/61/108
f 22/69/106 16/68/105 1/73/109
f 36/146/50 5/143/110 17/142/111 37/147/51
f 32/165/112 38/159/55 17/164/91
f 40/177/62 4/180/113 30/181/114 41/178/63
f 5/187/115 36/182/85 41/178/63 30/181/114
f 49/169/93 42/158/54 48/162/116
f 50/150/117 44/148/49 43/149/52 49/151/118
f 44/183/86 50/188/119 51/185/120 45/179/64
f 52/184/121 46/176/61 45/179/64 51/185/120
f 53/99/122 47/95/57 46/96/60 52/100/123
f 47/157/53 53/161/124 48/162/116 42/158/54
f 55/174/125 49/169/93 48/162/116 54/168/126
f 56/152/127 50/150/117 49/151/118 55/153/128
f 56/194/129 57/189/130 51/185/120 50/188/119
f 83/110/131 86/103/132 85/109/133
f 85/109/133 86/103/132 80/106/134
f 53/161/124 58/167/135 54/168/126 48/162/116
f 55/174/125 54/168/126 31/173/136 20/175/137
f 21/172/138 31/173/136 54/168/126 58/167/135
f 75/11/35 23/7/71 24/3/18 61/6/36
f 24/3/18 14/2/17 61/6/36
f 3/123/139 22/126/65 23/127/68 59/121/37
f 23/127/68 75/125/35 59/121/37
f 19/21/140 28/19/77 29/25/79 62/26/6
f 19/21/140 62/26/6 70/29/5
f 62/192/6 29/186/80 4/180/83 60/193/7
f 27/13/74 28/19/77 19/21/140 76/17/3
f 64/27/1 76/17/3 19/21/140
f 7/5/20 26/10/73 69/15/32 63/16/31
f 26/10/73 27/13/74 76/17/3 69/15/32
f 69/15/32 76/17/3 67/22/4 66/23/34
f 56/152/127 55/153/128 20/154/141 81/155/87
f 20/154/141 71/156/88 81/155/87
f 77/40/142 79/33/143 82/37/144
f 82/37/144 79/33/143 74/34/145
f 57/189/130 56/194/129 82/195/144 85/190/133
f 82/195/144 56/194/129 81/197/87 78/198/89
f 77/201/142 82/195/144 78/198/89
f 20/38/146 31/35/147 79/33/143 71/39/88
f 78/41/89 71/39/88 79/33/143 77/40/142
f 79/33/143 31/35/147 21/36/148 72/32/48
f 79/33/143 72/32/48 73/31/47 74/34/145
f 83/202/131 85/190/133 84/199/46
f 84/199/46 85/190/133 82/195/144 73/200/47
f 82/195/144 74/203/145 73/200/47
f 58/102/149 86/103/132 21/107/150
f 21/107/150 86/103/132 83/110/131 84/111/46
f 84/111/46 72/114/48 21/107/150
f 58/102/149 53/99/122 52/100/123 86/103/132
f 52/100/123 80/106/134 86/103/132
f 52/184/121 51/185/120 57/189/130 85/190/133
f 52/184/121 85/190/133 80/196/134
f 105/51/100 89/56/151 97/57/152 95/52/153
f 102/79/154 101/83/155 93/86/156
f 93/54/156 101/60/155 103/49/157
f 101/83/155 104/88/158 103/92/157
f 88/108/28 90/112/27 7/113/159 63/104/31
f 63/104/31 68/101/33 97/98/152 89/105/151
f 88/108/28 63/104/31 89/105/151
f 65/84/2 111/85/14 67/90/4
f 68/101/33 66/94/34 97/98/152
f 67/90/4 111/85/14 96/93/15 66/94/34
f 95/97/153 97/98/152 66/94/34 96/93/15
f 94/48/13 33/44/95 105/51/100 95/52/153
f 96/58/15 94/48/13 95/52/153
f 35/64/107 22/69/106 3/74/160 108/70/42
f 87/75/40 108/70/42 3/74/160
f 61/120/36 14/118/161 100/117/41 59/121/37
f 3/123/162 59/121/37 100/117/41 87/124/40
f 100/117/41 14/118/161 7/113/159 90/112/27
f 98/119/43 100/117/41 90/112/27 99/116/26
f 19/81/163 70/76/5 102/79/154 64/82/1
f 102/79/154 70/76/5 60/78/7 4/80/164
f 101/83/155 102/79/154 4/80/164
f 40/91/59 39/87/58 4/80/165
f 101/83/155 4/80/165 39/87/58 104/88/158
f 39/160/56 38/159/55 32/165/112 103/166/157
f 39/160/56 103/166/157 104/171/158
f 32/45/96 33/44/95 94/48/13 103/49/157
f 103/49/157 94/48/13 92/53/12 93/54/156
f 65/84/2 64/82/1 102/79/154 111/85/14
f 111/85/14 102/79/154 93/86/156 92/89/12
f 13/47/98 9/61/108 91/62/102 109/55/101
f 34/50/99 13/47/98 109/55/101 105/51/100
f 9/61/108 35/64/107 110/65/104 91/62/102
f 110/65/104 35/64/107 108/70/42 98/71/43
f 107/67/25 106/66/103 99/72/26
f 99/72/26 110/65/104 98/71/43
f 109/55/101 106/66/103 107/67/25 88/63/28
f 89/56/151 105/51/100 109/55/101 88/63/28
