# This file uses meters as units for non-parametric coordinates.

mtllib Asset_Wall03.mtl
g default
v -33.248657 -0.000002 553.838135
v 33.248657 -0.000002 553.838135
v -33.248657 355.894073 553.838135
v 33.248657 355.894073 553.838135
v -33.248657 38.436047 -553.838135
v 33.248657 38.436047 -553.838135
v -33.248657 -0.000002 -553.838135
v 33.248657 -0.000002 -553.838135
v -33.248657 355.894073 479.887421
v 33.248657 355.894073 479.887421
v 33.248657 -0.000002 479.887512
v -33.248657 -0.000002 479.887512
v -33.248657 114.786148 553.838257
v 33.248657 114.786148 553.838257
v 33.248657 114.786163 479.887512
v 33.248657 12.098036 -553.838135
v -33.248657 12.098036 -553.838135
v -33.248657 114.786148 479.887512
v -33.248657 -0.000002 -307.688538
v 33.248657 -0.000002 -307.688538
v 33.248657 114.786163 -307.688538
v 33.248657 158.560059 -341.085327
v -33.248657 158.560059 -341.085327
v -33.248657 114.786163 -307.688538
v -33.248657 249.371994 142.200256
v 33.248657 249.371994 142.200256
v 33.248657 114.786163 -16.231812
v 33.248657 -0.000002 -16.231812
v -33.248657 -0.000002 -16.231812
v -33.248657 114.786163 -16.231812
v -33.248657 141.124176 -878.574707
v 33.248657 141.124176 -878.574707
v 33.248657 114.786163 -878.574707
v -33.248657 114.786163 -878.574707
v 33.248657 -0.000002 -878.574707
v -33.248657 -0.000002 -878.574707
v -33.248657 140.813370 -768.824951
v 33.248657 140.813370 -768.824951
v 33.248657 104.504425 -768.824951
v 33.248657 -0.000002 -724.830078
v -33.248657 -0.000002 -724.830078
v -33.248657 104.504425 -768.824951
vt 0.282959 0.499633
vt 0.311511 0.230974
vt 0.364035 0.230974
vt 0.370054 0.318355
vt 0.222103 0.712271
vt 0.222103 0.230974
vt 0.364035 0.001839
vt 0.311511 0.001839
vt 0.408395 0.025989
vt 0.408395 0.078564
vt 0.208776 0.712271
vt 0.208776 0.230974
vt 0.222103 0.001839
vt 0.408395 0.001839
vt 0.447139 0.210450
vt 0.447139 0.282929
vt 0.208776 0.001839
vt 0.439210 0.001839
vt 0.466917 0.230974
vt 0.466917 0.283550
vt 0.466917 0.001839
vt 0.570697 0.318355
vt 0.576715 0.230974
vt 0.629240 0.230974
vt 0.657792 0.499633
vt 0.532355 0.025989
vt 0.532355 0.078564
vt 0.576715 0.001839
vt 0.629240 0.001839
vt 0.718648 0.230974
vt 0.718648 0.712271
vt 0.532355 0.001839
vt 0.493612 0.282929
vt 0.493612 0.210450
vt 0.718648 0.001839
vt 0.731975 0.230974
vt 0.731975 0.712271
vt 0.501540 0.001839
vt 0.473833 0.283550
vt 0.473833 0.230974
vt 0.731975 0.001839
vt 0.473833 0.001839
vt 0.573173 0.915881
vt 0.573173 0.716262
vt 0.586500 0.716262
vt 0.586500 0.915881
vt 0.547259 0.915881
vt 0.547259 0.716262
vt 0.567038 0.716262
vt 0.567038 0.915881
vt 0.001992 0.230974
vt 0.201611 0.230974
vt 0.201611 0.712271
vt 0.001992 0.712271
vt 0.001992 0.001839
vt 0.201611 0.001839
vt 0.738891 0.214477
vt 0.938510 0.214477
vt 0.938510 0.395755
vt 0.738891 0.395755
vt 0.738891 0.001839
vt 0.938510 0.001839
vt 0.938510 0.635545
vt 0.738891 0.635545
vt 0.798389 0.639537
vt 0.998008 0.639537
vt 0.998008 0.692113
vt 0.798389 0.692113
vt 0.998008 0.921247
vt 0.798389 0.921247
vt 0.592635 0.716262
vt 0.792254 0.716262
vt 0.792254 0.920627
vt 0.592635 0.920627
vn 0.000000 0.000000 1.000000
vn 0.000000 0.000000 1.000000
vn 0.000000 0.000001 1.000000
vn 0.000000 0.000001 1.000000
vn 0.000000 0.972306 -0.233710
vn 0.000000 0.972306 -0.233710
vn 0.000000 0.957019 -0.290027
vn 0.000000 0.957019 -0.290027
vn 0.000000 0.000000 -1.000000
vn 0.000000 0.000000 -1.000000
vn 0.000000 0.000000 -1.000000
vn 0.000000 0.000000 -1.000000
vn 1.000000 -0.000000 0.000000
vn 1.000000 -0.000000 0.000000
vn 1.000000 0.000000 0.000000
vn 1.000000 0.000000 0.000000
vn -1.000000 0.000000 0.000000
vn -1.000000 0.000000 0.000000
vn -1.000000 0.000000 0.000000
vn -1.000000 0.000000 0.000000
vn 0.000000 1.000000 0.000000
vn 0.000000 1.000000 0.000000
vn 0.000000 0.968111 -0.250524
vn 0.000000 0.968111 -0.250524
vn -1.000000 -0.000000 0.000000
vn -1.000000 -0.000000 0.000000
vn -1.000000 -0.000000 0.000000
vn -1.000000 -0.000000 0.000000
vn 0.000000 -0.000001 1.000000
vn 0.000000 -0.000001 1.000000
vn 1.000000 0.000000 0.000000
vn 1.000000 0.000000 0.000000
vn 0.000000 0.000000 -1.000000
vn 0.000000 0.000000 -1.000000
vn -1.000000 0.000000 0.000000
vn -1.000000 0.000000 0.000000
vn -1.000000 -0.000000 0.000000
vn -1.000000 -0.000000 0.000000
vn 1.000000 0.000000 0.000000
vn 1.000000 0.000000 0.000000
vn 1.000000 0.000000 0.000000
vn 0.000000 0.870786 -0.491661
vn 0.000000 0.870786 -0.491661
vn -1.000000 0.000000 0.000000
vn -1.000000 0.000000 0.000000
vn -1.000000 0.000000 0.000000
vn 1.000000 -0.000000 0.000000
vn 1.000000 -0.000000 0.000000
vn 1.000000 0.000000 0.000000
vn 1.000000 -0.000000 0.000000
vn 1.000000 -0.000000 0.000000
vn 1.000000 -0.000000 0.000000
vn 1.000000 -0.000000 0.000000
vn 1.000000 0.000000 0.000000
vn 1.000000 0.000000 0.000000
vn 1.000000 0.000000 0.000000
vn 1.000000 0.000000 0.000000
vn 0.000000 0.953465 0.301504
vn 0.000000 0.953465 0.301504
vn 0.000000 0.999996 0.002832
vn 0.000000 0.999996 0.002832
vn 1.000000 0.000000 0.000000
vn 1.000000 0.000000 0.000000
vn 1.000000 0.000000 0.000000
vn 1.000000 0.000000 0.000000
vn -1.000000 0.000000 0.000000
vn -1.000000 0.000000 0.000000
vn -1.000000 0.000000 0.000000
vn -1.000000 0.000000 0.000000
vn 1.000000 -0.000000 0.000000
vn 1.000000 -0.000000 0.000000
vn 1.000000 -0.000000 0.000000
vn 1.000000 -0.000000 0.000000
vn -1.000000 -0.000000 0.000000
vn -1.000000 -0.000000 0.000000
vn -1.000000 -0.000000 0.000000
vn -1.000000 -0.000000 0.000000
vn 0.000000 0.902856 0.429943
vn 0.000000 0.902856 0.429943
vn 1.000000 0.000000 0.000000
vn 1.000000 0.000000 0.000000
vn 1.000000 0.000000 0.000000
vn 1.000000 0.000000 0.000000
vn -1.000000 0.000000 0.000000
vn -1.000000 0.000000 0.000000
vn -1.000000 0.000000 0.000000
vn -1.000000 0.000000 0.000000
s 1
g pCube12
usemtl initialShadingGroup
f 13/51/1 14/52/2 4/53/3 3/54/4
s 2
f 25/57/5 26/58/6 22/59/7 23/60/8
s 3
f 31/65/9 32/66/10 33/67/11 34/68/12
s 4
f 26/1/13 27/2/14 21/3/15 22/4/16
s 5
f 23/22/17 24/23/18 30/24/19 25/25/20
s 2
f 3/43/21 4/44/22 10/45/23 9/46/24
s 5
f 9/31/25 18/30/26 13/36/27 3/37/28
s 1
f 1/55/29 2/56/30 14/52/2 13/51/1
s 4
f 20/7/31 21/3/15 27/2/14 28/8/32
s 3
f 34/68/12 33/67/11 35/69/33 36/70/34
s 5
f 24/23/18 19/28/35 29/29/36 30/24/19
f 13/36/27 18/30/26 12/35/37 1/41/38
s 4
f 16/9/39 21/3/15 20/7/31 8/14/40
f 22/4/16 21/3/15 16/9/39 6/10/41
s 2
f 23/60/8 22/59/7 6/63/42 5/64/43
s 5
f 17/26/44 24/23/18 23/22/17 5/27/45
f 7/32/46 19/28/35 24/23/18 17/26/44
s 2
f 9/61/24 10/62/23 26/58/6 25/57/5
s 4
f 10/5/47 15/6/48 27/2/14 26/1/13
f 28/8/32 27/2/14 15/6/48 11/13/49
s 5
f 30/24/19 29/29/36 12/35/37 18/30/26
f 25/25/20 30/24/19 18/30/26 9/31/25
s off
f 10/5/50 4/11/51 14/12/52 15/6/53
f 15/6/54 14/12/55 2/17/56 11/13/57
s 6
f 37/47/58 38/48/59 32/49/60 31/50/61
s 7
f 38/16/62 39/15/63 33/19/64 32/20/65
s 8
f 42/34/66 37/33/67 31/39/68 34/40/69
s 9
f 39/15/70 40/18/71 35/21/72 33/19/73
s 10
f 41/38/74 42/34/75 34/40/76 36/42/77
s 6
f 5/71/78 6/72/79 38/73/59 37/74/58
s 7
f 6/10/80 16/9/81 39/15/63 38/16/62
s 9
f 16/9/82 8/14/83 40/18/71 39/15/70
s 10
f 7/32/84 17/26/85 42/34/75 41/38/74
s 8
f 17/26/86 5/27/87 37/33/67 42/34/66
