# This file uses meters as units for non-parametric coordinates.

mtllib Asset_Stairs.mtl
g default
v -388.784058 0.000000 -202.858200
v -183.484253 0.000000 -202.858200
v -388.784058 130.508728 -202.858200
v -183.484253 130.508728 -202.858200
v -388.784058 130.508728 -302.858185
v -183.484253 130.508728 -302.858185
v -388.784058 0.000000 -302.858185
v -183.484253 0.000000 -302.858185
v 46.677856 368.289154 -202.858200
v 388.784058 368.289154 -202.858200
v 388.784058 368.289154 -302.858185
v 46.677856 368.289154 -302.858185
v 388.784058 237.780396 -302.858185
v 388.784058 237.780396 -202.858200
v 113.588623 212.326096 206.376938
v 207.763428 291.610565 206.376938
v 113.588623 212.326096 -211.131790
v 207.763428 291.610565 -211.131790
v 360.495972 321.059998 206.376938
v 360.495972 321.059998 -211.131790
v 175.198364 264.457672 206.376938
v 175.198364 264.457672 -211.131790
v 143.378174 264.457336 206.376938
v 143.378174 264.457336 -211.131790
v 114.391357 237.249084 206.376938
v 114.391357 237.249084 -211.131851
v 143.377808 237.249252 206.376938
v 143.377808 237.249252 -211.131851
v 175.198486 291.610260 206.376938
v 175.198486 291.610260 -211.131790
v 207.763550 321.059692 206.376938
v 207.763550 321.059692 -211.131790
v -388.784058 0.000000 302.858215
v -183.484253 0.000000 302.858215
v -388.784058 130.508728 302.858215
v -183.484253 130.508728 302.858215
v -388.784058 130.508728 202.858200
v -183.484253 130.508728 202.858200
v -388.784058 0.000000 202.858200
v -183.484253 0.000000 202.858200
v 46.677856 368.289154 302.858215
v 388.784058 368.289154 302.858215
v 388.784058 368.289154 202.858200
v 46.677856 368.289154 202.858200
v 388.784058 237.780396 202.858200
v 388.784058 237.780396 302.858215
v -129.899658 106.281784 206.376938
v -35.724854 185.566254 206.376938
v -129.899658 106.281784 -211.131790
v -35.724854 185.566254 -211.131790
v 117.007690 215.015671 206.376938
v 117.007690 215.015671 -211.131790
v -68.289917 158.413345 206.376938
v -68.289917 158.413345 -211.131790
v -100.110107 158.413010 206.376938
v -100.110107 158.413010 -211.131790
v -129.096924 131.204773 206.376938
v -129.096924 131.204773 -211.131851
v -100.110474 131.204941 206.376938
v -100.110474 131.204941 -211.131851
v -68.289795 185.565933 206.376938
v -68.289795 185.565933 -211.131790
v -35.724731 215.015350 206.376938
v -35.724731 215.015350 -211.131790
v -368.498535 -0.000004 206.376938
v -274.323730 79.284454 206.376938
v -368.498535 -0.000004 -211.131790
v -274.323730 79.284454 -211.131790
v -121.591187 108.733887 206.376938
v -121.591187 108.733887 -211.131790
v -306.888794 52.131561 206.376938
v -306.888794 52.131561 -211.131790
v -338.708984 52.131226 206.376938
v -338.708984 52.131226 -211.131790
v -367.695801 24.922985 206.376938
v -367.695801 24.922985 -211.131851
v -338.709351 24.923155 206.376938
v -338.709351 24.923155 -211.131851
v -306.888672 79.284149 206.376938
v -306.888672 79.284149 -211.131790
v -274.323608 108.733566 206.376938
v -274.323608 108.733566 -211.131790
vt 0.125488 0.742087
vt 0.186785 0.742087
vt 0.186785 0.814958
vt 0.125488 0.814958
vt 0.193646 0.742087
vt 0.254943 0.742087
vt 0.254943 0.814958
vt 0.193646 0.814958
vt 0.717940 0.482393
vt 0.731856 0.482393
vt 0.731856 0.738314
vt 0.717940 0.738314
vt 0.522594 0.482393
vt 0.539038 0.482393
vt 0.539038 0.738314
vt 0.522594 0.738314
vt 0.501635 0.738314
vt 0.501635 0.482393
vt 0.516796 0.482393
vt 0.516796 0.738314
vt 0.673382 0.738314
vt 0.673382 0.482393
vt 0.688574 0.482393
vt 0.688574 0.738314
vt 0.261804 0.742087
vt 0.323101 0.742087
vt 0.323101 0.814958
vt 0.261804 0.814958
vt 0.329962 0.742087
vt 0.391259 0.742087
vt 0.391259 0.814958
vt 0.329962 0.814958
vt 0.544837 0.482393
vt 0.558753 0.482393
vt 0.558753 0.738314
vt 0.544837 0.738314
vt 0.328908 0.482393
vt 0.345352 0.482393
vt 0.345352 0.738314
vt 0.328908 0.738314
vt 0.307948 0.738314
vt 0.307948 0.482393
vt 0.323110 0.482393
vt 0.323110 0.738314
vt 0.628825 0.738314
vt 0.628825 0.482393
vt 0.644017 0.482393
vt 0.644017 0.738314
vt 0.609110 0.482393
vt 0.623026 0.482393
vt 0.623026 0.738314
vt 0.609110 0.738314
vt 0.101541 0.742087
vt 0.117984 0.742087
vt 0.117984 0.998008
vt 0.101541 0.998008
vt 0.136504 0.738314
vt 0.136504 0.482393
vt 0.151665 0.482393
vt 0.151665 0.738314
vt 0.564552 0.738314
vt 0.564552 0.482393
vt 0.579744 0.482393
vt 0.579744 0.738314
vt 0.213909 0.211694
vt 0.213909 0.001992
vt 0.275206 0.001992
vt 0.275206 0.211694
vt 0.275206 0.478620
vt 0.213909 0.478620
vt 0.476331 0.738314
vt 0.476331 0.482393
vt 0.495836 0.482393
vt 0.495836 0.738314
vt 0.694373 0.738314
vt 0.694373 0.482393
vt 0.712141 0.482393
vt 0.712141 0.738314
vt 0.450570 0.738314
vt 0.450570 0.482393
vt 0.470532 0.482393
vt 0.470532 0.738314
vt 0.351151 0.738314
vt 0.351151 0.482393
vt 0.444771 0.482393
vt 0.444771 0.738314
vt 0.705751 0.211694
vt 0.705751 0.001992
vt 0.767048 0.001992
vt 0.767048 0.211694
vt 0.767048 0.478620
vt 0.705751 0.478620
vt 0.282645 0.738314
vt 0.282645 0.482393
vt 0.302150 0.482393
vt 0.302150 0.738314
vt 0.649815 0.738314
vt 0.649815 0.482393
vt 0.667583 0.482393
vt 0.667583 0.738314
vt 0.256884 0.738314
vt 0.256884 0.482393
vt 0.276846 0.482393
vt 0.276846 0.738314
vt 0.157464 0.738314
vt 0.157464 0.482393
vt 0.251085 0.482393
vt 0.251085 0.738314
vt 0.111201 0.738314
vt 0.111201 0.482393
vt 0.130706 0.482393
vt 0.130706 0.738314
vt 0.585543 0.738314
vt 0.585543 0.482393
vt 0.603311 0.482393
vt 0.603311 0.738314
vt 0.085440 0.738314
vt 0.085440 0.482393
vt 0.105402 0.482393
vt 0.105402 0.738314
vt 0.001883 0.998008
vt 0.001883 0.742086
vt 0.095504 0.742086
vt 0.095504 0.998008
vt 0.001883 0.478620
vt 0.001883 0.352777
vt 0.074754 0.352777
vt 0.074754 0.478620
vt 0.134650 0.001992
vt 0.207522 0.001992
vt 0.207522 0.211694
vt 0.414835 0.478620
vt 0.414835 0.352777
vt 0.487706 0.352777
vt 0.487706 0.478620
vt 0.282067 0.211694
vt 0.282067 0.001992
vt 0.354938 0.001992
vt 0.493909 0.478620
vt 0.493909 0.352777
vt 0.566780 0.352777
vt 0.566780 0.478620
vt 0.626677 0.001992
vt 0.699548 0.001992
vt 0.699548 0.211694
vt 0.870423 0.959020
vt 0.870423 0.833177
vt 0.943294 0.833177
vt 0.943294 0.959020
vt 0.737655 0.692094
vt 0.737655 0.482392
vt 0.810526 0.482392
vn 0.000000 0.000000 1.000000
vn 0.000000 0.000000 1.000000
vn 0.000000 0.000000 1.000000
vn 0.000000 0.000000 1.000000
vn 0.000000 1.000000 0.000000
vn 0.000000 1.000000 0.000000
vn 0.000000 1.000000 0.000000
vn 0.000000 1.000000 0.000000
vn 0.000000 0.000000 -1.000000
vn 0.000000 0.000000 -1.000000
vn 0.000000 0.000000 -1.000000
vn 0.000000 0.000000 -1.000000
vn 1.000000 0.000000 0.000000
vn 1.000000 0.000000 0.000000
vn 1.000000 0.000000 0.000000
vn 1.000000 0.000000 0.000000
vn -1.000000 0.000000 0.000000
vn -1.000000 0.000000 0.000000
vn -1.000000 0.000000 0.000000
vn -1.000000 0.000000 0.000000
vn 0.000000 0.000000 1.000000
vn 0.000000 0.000000 1.000000
vn 0.000000 0.000000 1.000000
vn 0.000000 0.000000 1.000000
vn 0.000000 0.000000 -1.000000
vn 0.000000 0.000000 -1.000000
vn 0.000000 0.000000 -1.000000
vn 0.000000 0.000000 -1.000000
vn -0.479249 0.877679 0.000000
vn -0.479249 0.877679 0.000000
vn -0.479249 0.877679 0.000000
vn -0.479249 0.877679 0.000000
vn 0.000000 0.000000 -1.000000
vn 0.000000 0.000000 -1.000000
vn 0.000000 0.000000 -1.000000
vn 0.000000 0.000000 -1.000000
vn 0.000000 0.000000 1.000000
vn 0.000000 0.000000 1.000000
vn 0.000000 0.000000 1.000000
vn 0.000000 0.000000 1.000000
vn -0.999482 0.032192 0.000000
vn -0.641685 0.766968 0.000000
vn -0.641684 0.766969 0.000000
vn -0.999482 0.032192 0.000000
vn -1.000000 0.000004 0.000000
vn -0.189330 0.981914 0.000000
vn -0.189330 0.981914 0.000000
vn -1.000000 0.000004 0.000000
vn -0.649114 0.760691 0.000000
vn -0.649114 0.760691 0.000000
vn -0.640398 0.768043 0.000000
vn -0.640398 0.768043 0.000000
vn -0.649878 0.760039 0.000000
vn -0.649878 0.760039 0.000000
vn -0.684384 0.729122 0.000000
vn -0.684384 0.729122 0.000000
vn -0.000009 1.000000 0.000000
vn -0.000009 1.000000 0.000000
vn -0.000002 1.000000 0.000000
vn -0.000002 1.000000 0.000000
vn 0.000000 0.000000 1.000000
vn 0.000000 0.000000 1.000000
vn 0.000000 0.000000 1.000000
vn 0.000000 0.000000 1.000000
vn 0.000000 1.000000 0.000000
vn 0.000000 1.000000 0.000000
vn 0.000000 1.000000 0.000000
vn 0.000000 1.000000 0.000000
vn 0.000000 0.000000 -1.000000
vn 0.000000 0.000000 -1.000000
vn 0.000000 0.000000 -1.000000
vn 0.000000 0.000000 -1.000000
vn 1.000000 0.000000 0.000000
vn 1.000000 0.000000 0.000000
vn 1.000000 0.000000 0.000000
vn 1.000000 0.000000 0.000000
vn -1.000000 0.000000 0.000000
vn -1.000000 0.000000 0.000000
vn -1.000000 0.000000 0.000000
vn -1.000000 0.000000 0.000000
vn 0.000000 0.000000 1.000000
vn 0.000000 0.000000 1.000000
vn 0.000000 0.000000 1.000000
vn 0.000000 0.000000 1.000000
vn 0.000000 0.000000 -1.000000
vn 0.000000 0.000000 -1.000000
vn 0.000000 0.000000 -1.000000
vn 0.000000 0.000000 -1.000000
vn -0.479249 0.877679 0.000000
vn -0.479249 0.877679 0.000000
vn -0.479249 0.877679 0.000000
vn -0.479249 0.877679 0.000000
vn 0.000000 0.000000 -1.000000
vn 0.000000 0.000000 -1.000000
vn 0.000000 0.000000 -1.000000
vn 0.000000 0.000000 -1.000000
vn 0.000000 0.000000 1.000000
vn 0.000000 0.000000 1.000000
vn 0.000000 0.000000 1.000000
vn 0.000000 0.000000 1.000000
vn -0.999482 0.032192 0.000000
vn -0.641685 0.766968 0.000000
vn -0.641684 0.766969 0.000000
vn -0.999482 0.032192 0.000000
vn -1.000000 0.000004 0.000000
vn -0.189330 0.981914 0.000000
vn -0.189330 0.981914 0.000000
vn -1.000000 0.000004 0.000000
vn -0.649114 0.760691 0.000000
vn -0.649114 0.760691 0.000000
vn -0.640398 0.768043 0.000000
vn -0.640398 0.768043 0.000000
vn -0.649878 0.760039 0.000000
vn -0.649877 0.760039 0.000000
vn -0.684384 0.729122 0.000000
vn -0.684384 0.729122 0.000000
vn -0.000010 1.000000 0.000000
vn -0.000010 1.000000 0.000000
vn -0.000002 1.000000 0.000000
vn -0.000002 1.000000 0.000000
vn -0.999482 0.032191 0.000000
vn -0.641685 0.766968 0.000000
vn -0.641684 0.766969 0.000000
vn -0.999482 0.032191 0.000000
vn -1.000000 0.000004 0.000000
vn -0.189330 0.981914 0.000000
vn -0.189330 0.981914 0.000000
vn -1.000000 0.000004 0.000000
vn -0.649114 0.760691 0.000000
vn -0.649114 0.760691 0.000000
vn -0.640398 0.768043 0.000000
vn -0.640398 0.768043 0.000000
vn -0.649878 0.760039 0.000000
vn -0.649877 0.760039 0.000000
vn -0.684384 0.729122 0.000000
vn -0.684383 0.729122 0.000000
vn -0.000009 1.000000 0.000000
vn -0.000009 1.000000 0.000000
vn -0.000002 1.000000 0.000000
vn -0.000002 1.000000 0.000000
s off
g pCube17
usemtl initialShadingGroup
f 1/125/1 2/126/2 4/127/3 3/128/4
f 9/65/5 10/66/6 11/67/7 12/68/8
f 5/132/9 6/133/10 8/134/11 7/135/12
f 14/1/13 13/2/14 11/3/15 10/4/16
f 7/5/17 1/6/18 3/7/19 5/8/20
f 3/128/21 4/127/22 10/130/23 9/131/24
f 6/133/25 5/132/26 12/136/27 11/137/28
f 5/69/29 3/70/30 9/65/31 12/68/32
f 8/134/33 6/133/34 11/137/35 13/138/36
f 4/127/37 2/126/38 14/129/39 10/130/40
s 1
f 15/9/41 25/10/42 26/11/43 17/12/44
s 2
f 16/13/45 31/14/46 32/15/47 18/16/48
s 1
f 22/17/49 21/18/50 29/19/51 30/20/52
f 24/71/53 23/72/54 21/73/50 22/74/49
f 26/75/43 25/76/42 27/77/55 28/78/56
f 28/21/56 27/22/55 23/23/54 24/24/53
f 30/79/52 29/80/51 16/81/57 18/82/58
s 2
f 32/83/47 31/84/46 19/85/59 20/86/60
s off
f 33/139/61 34/140/62 36/141/63 35/142/64
f 41/87/65 42/88/66 43/89/67 44/90/68
f 37/146/69 38/147/70 40/148/71 39/149/72
f 46/25/73 45/26/74 43/27/75 42/28/76
f 39/29/77 33/30/78 35/31/79 37/32/80
f 35/142/81 36/141/82 42/144/83 41/145/84
f 38/147/85 37/146/86 44/150/87 43/151/88
f 37/91/89 35/92/90 41/87/91 44/90/92
f 40/148/93 38/147/94 43/151/95 45/152/96
f 36/141/97 34/140/98 46/143/99 42/144/100
s 4
f 47/33/101 57/34/102 58/35/103 49/36/104
s 5
f 48/37/105 63/38/106 64/39/107 50/40/108
s 4
f 54/41/109 53/42/110 61/43/111 62/44/112
f 56/93/113 55/94/114 53/95/110 54/96/109
f 58/97/103 57/98/102 59/99/115 60/100/116
f 60/45/116 59/46/115 55/47/114 56/48/113
f 62/101/112 61/102/111 48/103/117 50/104/118
s 5
f 64/105/107 63/106/106 51/107/119 52/108/120
s 7
f 65/49/121 75/50/122 76/51/123 67/52/124
s 8
f 66/53/125 81/54/126 82/55/127 68/56/128
s 7
f 72/57/129 71/58/130 79/59/131 80/60/132
f 74/109/133 73/110/134 71/111/130 72/112/129
f 76/113/123 75/114/122 77/115/135 78/116/136
f 78/61/136 77/62/135 73/63/134 74/64/133
f 80/117/132 79/118/131 66/119/137 68/120/138
s 8
f 82/121/127 81/122/126 69/123/139 70/124/140
