# This file uses meters as units for non-parametric coordinates.

mtllib Asset_Wall02.mtl
g default
v -93.518814 -20.374100 342.732452
v 93.518661 -20.374100 342.732452
v -93.518814 110.380386 342.732452
v 93.518700 110.380386 342.732452
v -93.518814 169.272034 -553.838135
v 93.518700 108.466454 -553.838135
v -93.518814 -20.373871 -553.838135
v 93.518700 -20.374138 -553.838135
v -93.518814 205.799866 203.527054
v 93.518700 190.961548 203.527054
v 93.518661 -20.373825 104.820557
v -93.518814 -20.373810 104.820557
v -93.518814 10.531300 342.732574
v 93.518661 10.531300 342.732574
v 93.518661 69.293945 104.820557
v 93.518700 28.866905 -553.838135
v -93.518814 80.591415 -553.838135
v -93.518814 78.038040 104.820557
v -93.518814 -20.373840 -307.688446
v 93.518700 -20.373863 -307.688446
v 93.518700 56.516949 -307.688446
v 93.518700 103.945259 -341.085205
v -93.518814 141.958679 -341.085205
v -93.518814 75.211655 -307.688446
v -93.518814 130.378998 -29.409582
v 93.518700 97.027145 -29.409582
v 93.518700 50.654869 -16.231726
v 93.518700 -20.373863 -16.231726
v -93.518814 -20.373825 -16.231726
v -93.518814 64.702744 -16.231726
v -93.518814 -20.373901 -146.162842
v -93.518814 46.108406 -146.162842
v -93.518814 103.946136 -168.354248
v 93.518700 72.728424 -168.354248
v 93.518700 29.085266 -146.162842
v 93.518700 -20.373955 -146.162842
v -0.000078 -20.374207 342.732452
v -0.000078 -4.753601 342.732574
v -0.000057 90.417160 342.732452
v -0.000057 176.496201 203.527054
v -0.000057 97.027145 -29.409582
v -0.000057 72.728424 -168.354248
v -0.000057 111.319130 -341.085205
v -0.000057 126.815453 -553.838135
v -0.000057 44.678482 -553.838135
v -0.000057 -20.374046 -553.838135
vt 0.576216 0.232434
vt 0.571258 0.124411
vt 0.607351 0.192308
vt 0.614814 0.309700
vt 0.545169 0.292577
vt 0.542224 0.177799
vt 0.607351 0.001993
vt 0.571258 0.001992
vt 0.662354 0.123871
vt 0.662354 0.320891
vt 0.493118 0.525078
vt 0.515174 0.223933
vt 0.542224 0.001993
vt 0.662354 0.001992
vt 0.462012 0.325628
vt 0.462012 0.078487
vt 0.515174 0.001993
vt 0.462012 0.001992
vt 0.302776 0.403789
vt 0.310238 0.238580
vt 0.346332 0.166546
vt 0.341373 0.309702
vt 0.255235 0.251896
vt 0.255235 0.471393
vt 0.310238 0.001993
vt 0.346332 0.001993
vt 0.375365 0.212569
vt 0.372421 0.375127
vt 0.255235 0.001993
vt 0.375365 0.001993
vt 0.402415 0.245576
vt 0.424471 0.561805
vt 0.402415 0.001993
vt 0.455577 0.078487
vt 0.455577 0.325628
vt 0.455577 0.001992
vt 0.199720 0.689091
vt 0.152179 0.689091
vt 0.152179 0.565334
vt 0.199720 0.565334
vt 0.152179 0.812848
vt 0.199720 0.812848
vt 0.001761 0.078488
vt 0.125518 0.040655
vt 0.125518 0.276216
vt 0.001761 0.325628
vt 0.001761 0.001992
vt 0.125518 0.001992
vt 0.249275 0.078488
vt 0.249275 0.325628
vt 0.125518 0.489274
vt 0.001761 0.561805
vt 0.249275 0.001992
vt 0.249275 0.525078
vt 0.282412 0.812848
vt 0.205144 0.689091
vt 0.300662 0.689091
vt 0.376499 0.812848
vt 0.205144 0.565334
vt 0.282410 0.565334
vt 0.634862 0.528607
vt 0.758619 0.633693
vt 0.758619 0.836994
vt 0.634862 0.748104
vt 0.882376 0.679109
vt 0.882376 0.876129
vt 0.758619 0.998008
vt 0.634862 0.998007
vt 0.882376 0.998008
vt 0.381923 0.565334
vt 0.505680 0.637864
vt 0.505680 0.834562
vt 0.381923 0.752011
vt 0.629437 0.602061
vt 0.629437 0.834562
vt 0.505680 0.894704
vt 0.381923 0.817436
vt 0.629437 0.894704
vn 0.000000 0.000000 1.000000
vn -0.000000 -0.000000 1.000000
vn -0.000000 0.000001 1.000000
vn 0.000000 0.000001 1.000000
vn 0.319242 0.946837 0.039812
vn 0.173532 0.984147 0.036628
vn 0.221678 0.966171 0.131802
vn 0.339310 0.929876 0.142125
vn 0.000000 0.000000 -1.000000
vn 0.000000 0.000000 -1.000000
vn 0.000000 0.000000 -1.000000
vn 0.000000 0.000000 -1.000000
vn 1.000000 0.000000 0.000000
vn 1.000000 0.000000 0.000000
vn 1.000000 0.000000 0.000000
vn 1.000000 0.000000 0.000000
vn -1.000000 -0.000000 0.000000
vn -1.000000 -0.000000 0.000000
vn -1.000000 -0.000000 0.000000
vn -1.000000 -0.000000 0.000000
vn 0.215475 0.818034 0.533284
vn 0.033614 0.847420 0.529858
vn 0.098186 0.994967 0.020014
vn 0.295249 0.955159 0.022357
vn -1.000000 -0.000000 0.000000
vn -1.000000 0.000000 0.000000
vn -1.000000 -0.000000 0.000000
vn -1.000000 -0.000000 0.000000
vn -0.000000 -0.000005 1.000000
vn 0.000000 -0.000005 1.000000
vn 1.000000 0.000000 0.000000
vn 1.000000 0.000000 0.000000
vn -0.000000 0.000000 -1.000000
vn 0.000000 0.000000 -1.000000
vn -1.000000 0.000000 0.000000
vn -1.000000 0.000000 0.000000
vn -1.000000 -0.000000 0.000000
vn -1.000000 -0.000000 0.000000
vn 1.000000 0.000000 0.000000
vn 1.000000 0.000000 0.000000
vn 1.000000 0.000000 0.000000
vn 0.256344 0.963936 0.071524
vn 0.362412 0.927336 0.093298
vn -1.000000 0.000000 0.000000
vn -1.000000 0.000000 0.000000
vn -1.000000 0.000000 0.000000
vn 0.135662 0.952626 -0.272212
vn 0.309962 0.915517 -0.256422
vn 1.000000 -0.000000 0.000000
vn 1.000000 -0.000000 0.000000
vn 1.000000 -0.000000 0.000000
vn 1.000000 -0.000000 0.000000
vn 1.000000 0.000000 0.000000
vn 1.000000 0.000000 0.000000
vn -1.000000 0.000000 0.000000
vn -1.000000 0.000000 0.000000
vn -1.000000 0.000000 0.000000
vn 1.000000 -0.000000 -0.000000
vn 1.000000 -0.000000 -0.000000
vn 1.000000 -0.000000 -0.000000
vn 1.000000 -0.000000 -0.000000
vn 1.000000 0.000000 0.000000
vn 1.000000 0.000000 0.000000
vn 1.000000 0.000000 0.000000
vn 1.000000 0.000000 0.000000
vn 0.000000 -0.000005 1.000000
vn -0.000000 0.000000 1.000000
vn -0.000001 0.000001 1.000000
vn -0.156004 0.847512 0.507332
vn -0.116142 0.993161 -0.011914
vn -0.046370 0.957195 -0.285707
vn 0.021831 0.999184 0.033998
vn 0.092301 0.988998 0.115604
vn 0.136098 0.989601 0.046555
vn 0.000000 0.000000 -1.000000
vn -0.000000 0.000000 -1.000000
vn -0.000000 0.000000 -1.000000
s 1
g pCube13
usemtl initialShadingGroup
f 13/43/1 38/44/2 39/45/3 3/46/4
s 2
f 33/55/5 42/56/6 43/57/7 23/58/8
s 3
f 5/61/9 44/62/10 45/63/11 17/64/12
s 4
f 34/1/13 35/2/14 21/3/15 22/4/16
s 5
f 23/19/17 24/20/18 32/21/19 33/22/20
s 2
f 3/46/21 39/45/22 40/51/23 9/52/24
s 5
f 9/32/25 18/31/26 13/34/27 3/35/28
s 1
f 1/47/29 37/48/30 38/44/2 13/43/1
s 4
f 20/7/31 21/3/15 35/2/14 36/8/32
s 3
f 17/64/12 45/63/11 46/67/33 7/68/34
s 5
f 24/20/18 19/25/35 31/26/36 32/21/19
f 13/34/27 18/31/26 12/33/37 1/36/38
s 4
f 16/9/39 21/3/15 20/7/31 8/14/40
f 22/4/16 21/3/15 16/9/39 6/10/41
s 2
f 23/41/8 43/38/7 44/37/42 5/42/43
s 5
f 17/23/44 24/20/18 23/19/17 5/24/45
f 7/29/46 19/25/35 24/20/18 17/23/44
s 2
f 9/70/24 40/71/23 41/72/47 25/73/48
s 4
f 10/11/49 15/12/50 27/6/51 26/5/52
f 28/13/53 27/6/51 15/12/50 11/17/54
s 5
f 30/27/55 29/30/56 12/33/37 18/31/26
f 25/28/57 30/27/55 18/31/26 9/32/25
s off
f 10/11/58 4/15/59 14/16/60 15/12/61
f 15/12/62 14/16/63 2/18/64 11/17/65
s 5
f 32/21/19 31/26/36 29/30/56 30/27/55
f 33/22/20 32/21/19 30/27/55 25/28/57
s 2
f 25/73/48 41/72/47 42/76/6 33/77/5
s 4
f 26/5/52 27/6/51 35/2/14 34/1/13
f 36/8/32 35/2/14 27/6/51 28/13/53
s 1
f 38/44/2 37/48/30 2/53/66 14/49/67
f 39/45/3 38/44/2 14/49/67 4/50/68
s 2
f 40/51/23 39/45/22 4/50/69 10/54/70
f 41/72/47 40/71/23 10/74/70 26/75/71
f 42/76/6 41/72/47 26/75/71 34/78/72
f 43/57/7 42/56/6 34/59/72 22/60/73
f 44/37/42 43/38/7 22/39/73 6/40/74
s 3
f 45/63/11 44/62/10 6/65/75 16/66/76
f 46/67/33 45/63/11 16/66/76 8/69/77
