# This file uses meters as units for non-parametric coordinates.

mtllib Asset_Pillar02.mtl
g default
v -50.000000 0.000000 32.558563
v -32.558517 0.000000 50.000031
v -32.558517 10.946701 50.000031
v -50.000000 10.946701 32.558563
v 50.000000 0.000000 32.558563
v 32.558517 0.000000 50.000031
v 32.558517 10.946701 50.000031
v 50.000000 10.946701 32.558563
v -32.558517 19.755432 -50.000000
v -50.000000 19.755432 -32.558533
v -32.558517 10.946701 -50.000000
v -50.000000 10.946701 -32.558533
v 50.000000 19.755432 -32.558533
v 32.558517 19.755432 -50.000000
v 50.000000 10.946701 -32.558533
v 32.558517 10.946701 -50.000000
v -50.000000 19.755432 32.558563
v -32.558517 19.755432 50.000031
v 32.558517 19.755432 50.000031
v 50.000000 19.755432 32.558563
v 50.000000 0.000000 -32.558533
v 32.558517 0.000000 -50.000000
v -32.558517 0.000000 -50.000000
v -50.000000 0.000000 -32.558533
v -38.479126 19.755432 21.037689
v -21.037643 19.755432 38.479156
v 21.037643 19.755432 38.479156
v 38.479126 19.755432 21.037689
v 38.479126 19.755432 -21.037659
v 21.037643 19.755432 -38.479126
v -21.037643 19.755432 -38.479126
v -38.479126 19.755432 -21.037659
v -37.447403 27.551674 20.005951
v -20.005936 27.551674 37.447418
v 20.005936 27.551674 37.447418
v 37.447403 27.551674 20.005951
v 37.447403 27.551674 -20.005951
v 20.005936 27.551674 -37.447418
v -20.005936 27.551674 -37.447418
v -37.447403 27.551674 -20.005951
v -47.255692 33.784626 29.814240
v -29.814209 33.784626 47.255707
v 29.814209 33.784626 47.255707
v 47.255692 33.784626 29.814240
v 47.255692 33.784626 -29.814240
v 29.814209 33.784626 -47.255707
v -29.814209 33.784626 -47.255707
v -47.255692 33.784626 -29.814240
v -21.273117 136.925690 42.944855
v 21.273117 108.791969 42.944855
v 42.944839 70.538925 25.503387
v 42.944839 70.538925 -25.503387
v 21.273117 108.791969 -42.944855
v -21.273117 136.925690 -42.944855
v -42.944847 140.908569 -25.503387
v -42.944847 140.908569 25.503387
v -35.051575 152.275360 20.815826
v -17.363113 149.024506 35.051544
v 17.363113 126.061790 35.051544
v 35.051559 94.839661 20.815826
v 35.051559 94.839661 -20.815857
v 17.363113 126.061790 -35.051575
v -17.363113 149.024506 -35.051575
v -35.051575 152.275360 -20.815857
v -25.216087 152.995667 14.974894
v -12.491017 150.840881 25.216064
v 12.491017 135.620209 25.216064
v 25.216076 114.924828 14.974894
v 25.216076 114.924828 -14.974916
v 12.491017 135.620209 -25.216087
v -12.491017 150.840881 -25.216087
v -25.216087 152.995667 -14.974916
vt 0.301714 0.685211
vt 0.301714 0.479465
vt 0.329546 0.479465
vt 0.329546 0.685211
vt 0.267127 0.685211
vt 0.267127 0.479465
vt 0.329546 0.424357
vt 0.301714 0.424357
vt 0.301714 0.740319
vt 0.329546 0.740319
vt 0.267127 0.740319
vt 0.267127 0.424357
vt 0.369748 0.680678
vt 0.369748 0.474933
vt 0.397580 0.474933
vt 0.397580 0.680678
vt 0.335160 0.680678
vt 0.335160 0.474933
vt 0.369748 0.419824
vt 0.397580 0.419824
vt 0.397580 0.735787
vt 0.369748 0.735787
vt 0.335160 0.735787
vt 0.335160 0.419824
vt 0.389781 0.001992
vt 0.522723 0.001992
vt 0.519464 0.026625
vt 0.393041 0.026625
vt 0.577832 0.001992
vt 0.574572 0.026625
vt 0.550454 0.046319
vt 0.362051 0.046319
vt 0.334673 0.001992
vt 0.337933 0.026625
vt 0.536833 0.162449
vt 0.375671 0.162449
vt 0.605562 0.046319
vt 0.591942 0.283314
vt 0.522023 0.239230
vt 0.390482 0.239230
vt 0.306942 0.046319
vt 0.320563 0.283314
vt 0.567002 0.337880
vt 0.503567 0.302691
vt 0.408937 0.302691
vt 0.345503 0.337880
vt 0.535926 0.368081
vt 0.376579 0.368081
vt 0.376579 0.416172
vt 0.535926 0.416172
vt 0.084662 0.001992
vt 0.217604 0.001992
vt 0.214344 0.026625
vt 0.087922 0.026625
vt 0.272712 0.001992
vt 0.269452 0.026625
vt 0.245334 0.046319
vt 0.056931 0.046319
vt 0.029553 0.001992
vt 0.032813 0.026625
vt 0.231714 0.384790
vt 0.070552 0.384790
vt 0.300443 0.046319
vt 0.286822 0.372206
vt 0.216903 0.420705
vt 0.085363 0.420705
vt 0.001823 0.046319
vt 0.015443 0.372206
vt 0.458302 0.735787
vt 0.403194 0.680678
vt 0.439595 0.644277
vt 0.494704 0.699385
vt 0.403194 0.474933
vt 0.439595 0.511334
vt 0.664047 0.735787
vt 0.627646 0.699385
vt 0.458302 0.419824
vt 0.494704 0.456226
vt 0.719156 0.680678
vt 0.682754 0.644277
vt 0.664047 0.419824
vt 0.627646 0.456226
vt 0.719156 0.474933
vt 0.682754 0.511334
vt 0.175414 0.691987
vt 0.230523 0.636878
vt 0.261513 0.667868
vt 0.206405 0.722977
vt 0.230523 0.510456
vt 0.261513 0.479465
vt 0.175414 0.455347
vt 0.206405 0.424357
vt 0.169800 0.455347
vt 0.114692 0.510456
vt 0.083701 0.479465
vt 0.138810 0.424357
vt 0.114692 0.636878
vt 0.083701 0.667868
vt 0.169800 0.691987
vt 0.138810 0.722977
vt 0.026762 0.796548
vt 0.082651 0.751569
vt 0.098045 0.782645
vt 0.057839 0.815004
vt 0.001823 0.781738
vt 0.070297 0.726629
vt 0.192373 0.751569
vt 0.176979 0.782645
vt 0.098045 0.941992
vt 0.057839 0.909634
vt 0.026762 0.928089
vt 0.082651 0.973068
vt 0.070297 0.998008
vt 0.001823 0.942900
vt 0.192373 0.973068
vt 0.176979 0.941992
vt 0.232749 0.932374
vt 0.232749 0.726629
vt 0.260582 0.726629
vt 0.260582 0.932374
vt 0.198162 0.932374
vt 0.198162 0.726629
vt 0.267710 0.949716
vt 0.267710 0.743971
vt 0.295542 0.743971
vt 0.295542 0.949716
vt 0.330130 0.743971
vt 0.330130 0.949716
vt 0.337258 0.872381
vt 0.337258 0.739439
vt 0.361891 0.742699
vt 0.361891 0.869121
vt 0.392207 0.739439
vt 0.392207 0.872381
vt 0.367574 0.869121
vt 0.367574 0.742699
vt 0.611884 0.001992
vt 0.800287 0.001992
vt 0.773300 0.238987
vt 0.638870 0.327879
vt 0.760946 0.293553
vt 0.651224 0.366106
vt 0.913173 0.733873
vt 0.724769 0.733873
vt 0.751756 0.407986
vt 0.886186 0.496878
vt 0.764110 0.369759
vt 0.873832 0.442312
vn -0.707106 0.000000 0.707107
vn -0.707106 0.000000 0.707107
vn -0.707107 0.000000 0.707107
vn -0.707107 0.000000 0.707107
vn -0.707107 0.000000 0.707107
vn -0.707107 0.000000 0.707107
vn 0.707106 0.000000 0.707107
vn 0.707106 0.000000 0.707107
vn 0.707107 0.000000 0.707107
vn 0.707107 0.000000 0.707107
vn 0.707107 0.000000 0.707107
vn 0.707107 0.000000 0.707107
vn 0.000000 1.000000 0.000000
vn 0.000000 1.000000 0.000000
vn 0.000000 1.000000 0.000000
vn 0.000000 1.000000 0.000000
vn -0.707107 0.000000 -0.707107
vn -0.707107 0.000000 -0.707107
vn -0.707107 0.000000 -0.707107
vn -0.707107 0.000000 -0.707107
vn -0.707106 0.000000 -0.707107
vn -0.707106 0.000000 -0.707107
vn 0.000000 1.000000 0.000000
vn 0.000000 1.000000 0.000000
vn 0.000000 1.000000 0.000000
vn 0.000000 1.000000 0.000000
vn 0.707107 0.000000 -0.707107
vn 0.707107 0.000000 -0.707107
vn 0.707107 0.000000 -0.707107
vn 0.707107 0.000000 -0.707107
vn 0.707106 0.000000 -0.707107
vn 0.707106 0.000000 -0.707107
vn 0.000000 1.000000 -0.000000
vn 0.000000 1.000000 -0.000000
vn 0.000000 1.000000 -0.000000
vn 0.000000 1.000000 -0.000000
vn 0.000000 1.000000 -0.000000
vn 0.000000 1.000000 0.000000
vn 0.000000 1.000000 0.000000
vn 0.000000 1.000000 -0.000000
vn -0.695039 0.183958 0.695039
vn -0.695039 0.183958 0.695039
vn -0.695039 0.183958 0.695040
vn -0.695039 0.183958 0.695039
vn 0.695039 0.183958 0.695040
vn 0.695039 0.183958 0.695040
vn 0.695039 0.183958 0.695040
vn 0.695039 0.183958 0.695040
vn 0.695040 0.183956 -0.695040
vn 0.695040 0.183956 -0.695040
vn 0.695040 0.183956 -0.695040
vn 0.695040 0.183956 -0.695040
vn -0.695040 0.183956 -0.695040
vn -0.695040 0.183956 -0.695040
vn -0.695040 0.183956 -0.695040
vn -0.695040 0.183956 -0.695040
vn -0.467601 -0.879229 0.091130
vn -0.091130 -0.879230 0.467601
vn -0.159249 -0.897559 0.411130
vn -0.411130 -0.897559 0.159249
vn 0.091130 -0.879230 0.467601
vn 0.467601 -0.879229 0.091130
vn 0.411130 -0.897559 0.159249
vn 0.159249 -0.897559 0.411130
vn 0.467601 -0.879229 -0.091130
vn 0.091130 -0.879230 -0.467601
vn 0.159249 -0.897559 -0.411130
vn 0.411130 -0.897559 -0.159249
vn -0.091130 -0.879230 -0.467601
vn -0.467601 -0.879229 -0.091130
vn -0.411130 -0.897559 -0.159249
vn -0.159249 -0.897559 -0.411130
vn 0.000000 0.000000 1.000000
vn 0.000000 0.000000 1.000000
vn 0.000000 0.000000 1.000000
vn 0.000000 0.000000 1.000000
vn 0.000000 0.000000 -1.000000
vn 0.000000 0.000000 -1.000000
vn 0.000000 0.000000 -1.000000
vn 0.000000 0.000000 -1.000000
vn 1.000000 0.000000 0.000000
vn 1.000000 0.000000 0.000000
vn 1.000000 0.000000 0.000000
vn 1.000000 0.000000 0.000000
vn -1.000000 0.000000 0.000000
vn -1.000000 0.000000 0.000000
vn -1.000000 0.000000 0.000000
vn -1.000000 0.000000 0.000000
vn 0.000000 0.000000 1.000000
vn 0.000000 0.000000 1.000000
vn 1.000000 0.000000 0.000000
vn 1.000000 0.000000 0.000000
vn 0.000000 0.000000 -1.000000
vn 0.000000 0.000000 -1.000000
vn -1.000000 0.000000 0.000000
vn -1.000000 0.000000 0.000000
vn 0.000000 0.131194 0.991357
vn 0.000000 0.131194 0.991357
vn 0.000000 0.131194 0.991357
vn 0.000000 0.131194 0.991357
vn 0.991357 0.131192 0.000000
vn 0.991357 0.131192 0.000000
vn 0.991357 0.131192 0.000000
vn 0.991357 0.131192 0.000000
vn 0.000000 0.131190 -0.991357
vn 0.000000 0.131190 -0.991357
vn 0.000000 0.131190 -0.991357
vn 0.000000 0.131190 -0.991357
vn -0.991357 0.131192 0.000000
vn -0.991357 0.131192 0.000000
vn -0.991357 0.131192 0.000000
vn -0.991357 0.131192 0.000000
vn 0.013309 0.048335 0.998742
vn 0.013309 0.048335 0.998743
vn 0.013309 0.048335 0.998743
vn 0.013309 0.048335 0.998743
vn 0.730024 0.135622 0.669830
vn 0.730024 0.135622 0.669830
vn 0.730024 0.135622 0.669830
vn 0.730024 0.135622 0.669830
vn 0.993192 0.116490 0.000000
vn 0.993192 0.116490 0.000000
vn 0.993192 0.116490 0.000000
vn 0.993192 0.116490 0.000000
vn 0.730024 0.135622 -0.669830
vn 0.730024 0.135622 -0.669830
vn 0.730024 0.135622 -0.669830
vn 0.730024 0.135622 -0.669830
vn 0.013309 0.048335 -0.998743
vn 0.013309 0.048335 -0.998742
vn 0.013309 0.048335 -0.998743
vn 0.013309 0.048335 -0.998743
vn -0.659879 0.071005 -0.748010
vn -0.659879 0.071005 -0.748010
vn -0.659879 0.071005 -0.748010
vn -0.659878 0.071005 -0.748010
vn -0.999191 0.040209 0.000000
vn -0.999191 0.040209 0.000000
vn -0.999191 0.040209 0.000000
vn -0.999191 0.040209 0.000000
vn -0.659879 0.071005 0.748010
vn -0.659879 0.071005 0.748010
vn -0.659879 0.071005 0.748010
vn -0.659879 0.071005 0.748010
vn -0.439904 0.586082 0.680435
vn -0.439904 0.586082 0.680435
vn -0.439904 0.586082 0.680435
vn -0.439904 0.586082 0.680435
vn 0.878364 0.348428 0.327223
vn 0.878364 0.348428 0.327223
vn 0.878364 0.348428 0.327223
vn 0.878364 0.348428 0.327223
vn 0.878364 0.348427 -0.327223
vn 0.878364 0.348427 -0.327223
vn 0.878364 0.348427 -0.327223
vn 0.878364 0.348427 -0.327223
vn -0.439904 0.586081 -0.680436
vn -0.439905 0.586081 -0.680436
vn -0.439904 0.586081 -0.680436
vn -0.439904 0.586081 -0.680436
vn 0.298779 0.451839 0.840579
vn 0.298779 0.451839 0.840579
vn 0.298779 0.451839 0.840579
vn 0.298779 0.451839 0.840579
vn 0.951085 0.308928 0.000000
vn 0.951085 0.308928 0.000000
vn 0.951085 0.308928 0.000000
vn 0.951085 0.308928 0.000000
vn 0.298778 0.451838 -0.840580
vn 0.298778 0.451838 -0.840580
vn 0.298778 0.451838 -0.840580
vn 0.298778 0.451838 -0.840580
vn -0.821381 0.570380 0.000000
vn -0.821381 0.570380 0.000000
vn -0.821381 0.570380 0.000000
vn -0.821381 0.570380 0.000000
vn 0.026598 0.982576 0.183949
vn 0.026598 0.982576 0.183949
vn 0.026598 0.982576 0.183949
vn 0.026598 0.982576 0.183949
vn 0.875888 0.476086 0.078507
vn 0.875888 0.476086 0.078507
vn 0.875887 0.476086 0.078507
vn 0.875888 0.476086 0.078507
vn 0.875888 0.476086 -0.078507
vn 0.875887 0.476086 -0.078507
vn 0.875887 0.476086 -0.078507
vn 0.875887 0.476086 -0.078507
vn 0.026598 0.982576 -0.183949
vn 0.026598 0.982576 -0.183949
vn 0.026598 0.982576 -0.183949
vn 0.026598 0.982576 -0.183949
vn 0.484339 0.757372 0.437953
vn 0.484339 0.757372 0.437953
vn 0.484339 0.757373 0.437953
vn 0.484339 0.757373 0.437953
vn 0.898101 0.439790 0.000000
vn 0.898101 0.439790 0.000000
vn 0.898101 0.439790 0.000000
vn 0.898101 0.439790 0.000000
vn 0.484339 0.757372 -0.437953
vn 0.484339 0.757372 -0.437953
vn 0.484339 0.757372 -0.437953
vn 0.484339 0.757372 -0.437953
vn -0.073040 0.997329 0.000000
vn -0.073040 0.997329 0.000000
vn -0.073040 0.997329 0.000000
vn -0.073040 0.997329 0.000000
vn 0.465701 0.884942 0.000000
vn 0.465701 0.884942 0.000000
vn 0.166957 0.985964 0.000000
vn 0.166957 0.985964 0.000000
vn 0.645731 0.763565 0.000000
vn 0.645731 0.763565 0.000000
vn 0.851852 0.523782 0.000000
vn 0.851852 0.523782 0.000000
s 1
g pCube6
usemtl initialShadingGroup
f 1/18/1 2/24/2 3/19/3 4/14/4
f 4/14/4 3/19/3 18/20/5 17/15/6
s 2
f 6/11/7 5/5/8 8/1/9 7/9/10
f 7/9/10 8/1/9 20/4/11 19/10/12
s 3
f 9/69/13 10/70/14 32/71/15 31/72/16
s 4
f 10/16/17 9/21/18 11/22/19 12/13/20
f 12/13/20 11/22/19 23/23/21 24/17/22
s 3
f 13/79/23 14/75/24 30/76/25 29/80/26
s 5
f 14/7/27 13/3/28 15/2/29 16/8/30
f 16/8/30 15/2/29 21/6/31 22/12/32
s 3
f 17/73/33 18/77/34 26/78/35 25/74/36
f 19/81/37 20/83/38 28/84/39 27/82/40
s off
f 25/52/41 26/55/42 34/56/43 33/53/44
f 27/33/45 28/25/46 36/28/47 35/34/48
f 29/26/49 30/29/50 38/30/51 37/27/52
f 31/59/53 32/51/54 40/54/55 39/60/56
s 7
f 33/85/57 34/86/58 42/87/59 41/88/60
f 35/89/61 36/91/62 44/92/63 43/90/64
f 37/93/65 38/94/66 46/95/67 45/96/68
f 39/97/69 40/99/70 48/100/71 47/98/72
s 10
f 3/117/73 7/118/74 19/119/75 18/120/76
s 11
f 9/123/77 14/124/78 16/125/79 11/126/80
s 12
f 8/1/81 15/2/82 13/3/83 20/4/84
s 13
f 12/13/85 4/14/86 17/15/87 10/16/88
s 10
f 3/117/73 2/121/89 6/122/90 7/118/74
s 12
f 8/1/81 5/5/91 21/6/92 15/2/82
s 11
f 11/126/80 16/125/79 22/127/93 23/128/94
s 13
f 12/13/85 24/17/95 1/18/96 4/14/86
s 3
f 18/77/34 19/81/37 27/82/40 26/78/35
f 20/83/38 13/79/23 29/80/26 28/84/39
f 14/75/24 9/69/13 31/72/16 30/76/25
f 10/70/14 17/73/33 25/74/36 32/71/15
s off
f 26/129/97 27/130/98 35/131/99 34/132/100
f 28/25/101 29/26/102 37/27/103 36/28/104
f 30/133/105 31/134/106 39/135/107 38/136/108
f 32/51/109 25/52/110 33/53/111 40/54/112
s 7
f 34/86/58 35/89/61 43/90/64 42/87/59
f 36/28/62 37/27/65 45/31/68 44/32/63
f 38/94/66 39/97/69 47/98/72 46/95/67
f 40/54/70 33/53/57 41/57/60 48/58/71
s off
f 42/137/113 43/138/114 50/139/115 49/140/116
f 43/41/117 44/32/118 51/36/119 50/42/120
f 44/32/121 45/31/122 52/35/123 51/36/124
f 45/31/125 46/37/126 53/38/127 52/35/128
f 46/143/129 47/144/130 54/145/131 53/146/132
f 47/67/133 48/58/134 55/62/135 54/68/136
f 48/58/137 41/57/138 56/61/139 55/62/140
f 41/57/141 42/63/142 49/64/143 56/61/144
f 56/105/145 49/106/146 58/102/147 57/101/148
f 50/42/149 51/36/150 60/40/151 59/46/152
f 52/35/153 53/38/154 62/43/155 61/39/156
f 54/113/157 55/114/158 64/111/159 63/112/160
f 49/140/161 50/139/162 59/141/163 58/142/164
f 51/36/165 52/35/166 61/39/167 60/40/168
f 53/146/169 54/145/170 63/147/171 62/148/172
f 55/62/173 56/61/174 57/65/175 64/66/176
f 57/101/177 58/102/178 66/103/179 65/104/180
f 59/46/181 60/40/182 68/45/183 67/48/184
f 61/39/185 62/43/186 70/47/187 69/44/188
f 63/112/189 64/111/190 72/110/191 71/109/192
f 58/102/193 59/107/194 67/108/195 66/103/196
f 60/40/197 61/39/198 69/44/199 68/45/200
f 62/115/201 63/112/202 71/109/203 70/116/204
f 64/111/205 57/101/206 65/104/207 72/110/208
s 14
f 66/103/209 71/109/210 72/110/211 65/104/212
f 66/49/209 67/48/213 70/47/214 71/50/210
f 70/47/214 67/48/213 68/45/215 69/44/216
