# This file uses meters as units for non-parametric coordinates.

mtllib Asset_Chapel.mtl
g default
v -571.367371 13.840408 596.711670
v 571.367432 13.840408 596.711670
v -571.367371 480.191162 596.711670
v 571.367432 480.191162 596.711670
v -571.367371 480.191162 -596.711670
v 571.367432 480.191162 -596.711670
v -571.367371 13.840408 -427.663055
v 571.367432 13.840408 -427.663055
v -50.481136 1372.980347 596.711670
v 50.481224 1372.980347 596.711670
v 50.481224 1372.980347 -596.711670
v -50.481136 1372.980347 -596.711670
v -451.902527 528.542236 596.711670
v 451.902618 528.542236 596.711670
v 39.926323 1312.644287 596.711670
v -39.926281 1312.644287 596.711670
v -451.902527 528.542236 485.274750
v 451.902618 528.542236 485.274750
v 39.926323 1312.644287 485.274750
v -39.926281 1312.644287 485.274750
v -375.635132 13.840408 596.711670
v -375.635132 480.191162 596.711670
v -297.095032 528.542236 596.711670
v -297.095032 528.542236 485.274750
v -26.248762 1312.643921 485.274750
v -26.248762 1312.643921 596.711670
v -33.187935 1372.980347 596.711670
v -33.187935 1372.980347 -596.711670
v -122.708740 13.840408 596.711670
v -122.708740 480.191162 596.711670
v -97.052040 528.542236 596.711670
v -97.052040 528.542236 485.274750
v -8.574697 1312.643799 485.274750
v -8.574697 1312.643799 596.711670
v -10.841475 1372.980347 596.711670
v -10.841475 1372.980347 -596.711670
v 99.017380 13.840439 596.711670
v 99.017380 480.191162 596.711670
v 78.314293 528.542236 596.711670
v 78.314293 528.542236 485.274750
v 6.919208 1312.643799 485.274750
v 6.919208 1312.643799 596.711670
v 8.748366 1372.980225 596.711670
v 8.748366 1372.980225 -596.711670
v 353.170959 13.840439 596.711670
v 353.170959 480.191162 596.711670
v 279.327942 528.542236 596.711670
v 279.327942 528.542236 485.274750
v 24.679106 1312.643921 485.274750
v 24.679106 1312.643921 596.711670
v 31.203239 1372.980347 596.711670
v 31.203239 1372.980347 -596.711670
v -375.635132 480.191162 531.267639
v -122.708740 480.191162 531.267639
v -375.635132 13.840408 531.267639
v -122.708725 13.840408 531.267639
v 99.017380 480.191162 531.267639
v 353.170959 480.191162 531.267639
v 99.017387 13.840439 531.267639
v 353.170959 13.840439 531.267639
vt 0.271984 0.020234
vt 0.481546 0.020234
vt 0.516129 0.264380
vt 0.271984 0.264380
vt 0.516129 0.731776
vt 0.271984 0.731776
vt 0.558132 0.020234
vt 0.767694 0.020234
vt 0.767694 0.264380
vt 0.523548 0.264380
vt 0.767694 0.731776
vt 0.523548 0.731776
vt 0.979653 0.434575
vt 0.979653 0.845070
vt 0.956856 0.845070
vt 0.956856 0.434575
vt 0.928149 0.845070
vt 0.928149 0.434575
vt 0.950946 0.434575
vt 0.950946 0.845070
vt 0.881370 0.678720
vt 0.881370 0.434575
vt 0.894758 0.434575
vt 0.894758 0.678720
vt 0.875460 0.434575
vt 0.875460 0.678720
vt 0.862072 0.678720
vt 0.862072 0.434575
vt 0.842774 0.678720
vt 0.842774 0.434575
vt 0.856162 0.434575
vt 0.856162 0.678720
vt 0.836864 0.434575
vt 0.836864 0.678720
vt 0.823476 0.678720
vt 0.823476 0.434575
vt 0.900668 0.434575
vt 0.904363 0.434575
vt 0.904363 0.678720
vt 0.900668 0.678720
vt 0.909137 0.434575
vt 0.909137 0.678720
vt 0.913323 0.434575
vt 0.913323 0.678720
vt 0.918120 0.434575
vt 0.918120 0.678720
vt 0.922239 0.434575
vt 0.922239 0.678720
vt 0.674611 0.928718
vt 0.674611 0.895644
vt 0.697408 0.895644
vt 0.697408 0.928718
vt 0.674611 0.852905
vt 0.697408 0.852905
vt 0.674611 0.815438
vt 0.697408 0.815438
vt 0.674611 0.772491
vt 0.697408 0.772491
vt 0.674611 0.735620
vt 0.697408 0.735620
vt 0.615966 0.735620
vt 0.615966 0.758418
vt 0.613044 0.758418
vt 0.613044 0.735620
vt 0.619743 0.735620
vt 0.619743 0.758418
vt 0.623053 0.735620
vt 0.623053 0.758418
vt 0.626847 0.735620
vt 0.626847 0.758418
vt 0.630105 0.758418
vt 0.630105 0.735620
vt 0.649403 0.735620
vt 0.649403 0.789658
vt 0.636015 0.789658
vt 0.636015 0.735620
vt 0.668701 0.735620
vt 0.668701 0.789920
vt 0.655313 0.789920
vt 0.655313 0.735620
vt 0.020232 0.020234
vt 0.062050 0.020234
vt 0.062050 0.264380
vt 0.020232 0.264380
vt 0.078830 0.289692
vt 0.045755 0.289692
vt 0.116088 0.264380
vt 0.121569 0.289692
vt 0.131519 0.731776
vt 0.133774 0.700188
vt 0.163460 0.264380
vt 0.159036 0.289692
vt 0.136696 0.700188
vt 0.135214 0.731776
vt 0.116088 0.020234
vt 0.163460 0.020234
vt 0.217760 0.264380
vt 0.201983 0.289692
vt 0.140473 0.700188
vt 0.139988 0.731776
vt 0.264377 0.264380
vt 0.238854 0.289692
vt 0.143783 0.700188
vt 0.144174 0.731776
vt 0.217760 0.020234
vt 0.264377 0.020234
vt 0.153090 0.731776
vt 0.150835 0.700188
vt 0.147577 0.700188
vt 0.148971 0.731776
vt 0.775113 0.020234
vt 0.808187 0.020234
vt 0.866054 0.430730
vt 0.863132 0.430730
vt 0.850927 0.020234
vt 0.869830 0.430730
vt 0.888394 0.020234
vt 0.873140 0.430730
vt 0.931340 0.020234
vt 0.876934 0.430730
vt 0.968211 0.020234
vt 0.880192 0.430730
vt 0.817566 0.979766
vt 0.763528 0.979766
vt 0.763528 0.735620
vt 0.817566 0.735620
vt 0.757618 0.979766
vt 0.703318 0.979766
vt 0.703318 0.735620
vt 0.757618 0.735620
vn 0.000000 0.000000 1.000000
vn 0.000000 0.000000 1.000000
vn 0.000000 0.000000 1.000000
vn 0.000000 0.000000 1.000000
vn 0.000000 1.000000 0.000000
vn 0.000000 1.000000 0.000000
vn 0.000000 1.000000 0.000000
vn 0.000000 1.000000 0.000000
vn 1.000000 0.000000 0.000000
vn 1.000000 0.000000 0.000000
vn 1.000000 0.000000 0.000000
vn 1.000000 0.000000 0.000000
vn -1.000000 0.000000 0.000000
vn -1.000000 0.000000 0.000000
vn -1.000000 0.000000 0.000000
vn -1.000000 0.000000 0.000000
vn 0.000000 0.000000 1.000000
vn 0.000000 0.000000 1.000000
vn 0.000000 0.000000 1.000000
vn 0.000000 0.000000 1.000000
vn 0.863740 0.503938 0.000000
vn 0.863740 0.503938 0.000000
vn 0.863740 0.503938 0.000000
vn 0.863740 0.503938 0.000000
vn -0.863740 0.503938 0.000000
vn -0.863740 0.503938 0.000000
vn -0.863740 0.503938 0.000000
vn -0.863740 0.503938 0.000000
vn 0.000000 0.000000 1.000000
vn 0.000000 0.000000 1.000000
vn 0.000000 0.000000 1.000000
vn 0.000000 0.000000 1.000000
vn -0.000001 0.000000 1.000000
vn -0.000001 0.000000 1.000000
vn -0.000001 0.000000 1.000000
vn -0.000001 0.000000 1.000000
vn -0.000001 0.000000 1.000000
vn -0.000001 0.000000 1.000000
vn -0.000000 0.000000 1.000000
vn -0.000000 0.000000 1.000000
vn 0.000000 0.000000 1.000000
vn 0.000000 0.000000 1.000000
vn 0.000000 0.000000 1.000000
vn 0.000000 0.000000 1.000000
vn 0.000000 1.000000 0.000000
vn 0.000000 1.000000 0.000000
vn 0.000000 1.000000 0.000000
vn 0.000000 1.000000 0.000000
vn -0.885248 -0.465120 0.000000
vn -0.885248 -0.465120 0.000000
vn -0.885248 -0.465120 0.000000
vn -0.885248 -0.465120 0.000000
vn -0.000016 -1.000000 0.000000
vn -0.000016 -1.000000 0.000000
vn -0.000027 -1.000000 0.000000
vn -0.000027 -1.000000 0.000000
vn 0.885248 -0.465120 0.000000
vn 0.885248 -0.465120 0.000000
vn 0.885248 -0.465120 0.000000
vn 0.885248 -0.465120 0.000000
vn 0.000000 0.000000 1.000000
vn 0.000000 0.000000 1.000000
vn 0.000000 1.000000 0.000000
vn 0.000000 1.000000 0.000000
vn 0.000000 0.000000 1.000000
vn 0.000000 0.000000 1.000000
vn -0.000004 -1.000000 0.000000
vn -0.000004 -1.000000 0.000000
vn -0.000001 0.000000 1.000000
vn -0.000001 0.000000 1.000000
vn 0.000003 1.000000 0.000000
vn 0.000003 1.000000 0.000000
vn 0.000000 0.000000 1.000000
vn 0.000000 0.000000 1.000000
vn 0.000000 0.000000 1.000000
vn 0.000000 0.000000 1.000000
vn 0.000000 0.000000 1.000000
vn 0.000000 0.000000 1.000000
vn 0.000000 1.000000 0.000000
vn 0.000000 1.000000 0.000000
vn -0.000000 0.000000 1.000000
vn -0.000000 0.000000 1.000000
vn 0.000004 -1.000000 0.000000
vn 0.000004 -1.000000 0.000000
vn 0.000001 0.000000 1.000000
vn 0.000001 0.000000 1.000000
vn 0.000000 1.000000 0.000000
vn 0.000000 1.000000 0.000000
vn 0.000000 0.000000 1.000000
vn 0.000000 0.000000 1.000000
vn 0.000000 1.000000 0.000000
vn 0.000000 1.000000 0.000000
vn -0.000000 0.000000 1.000000
vn -0.000000 0.000000 1.000000
vn 0.000015 -1.000000 0.000000
vn 0.000015 -1.000000 0.000000
vn 0.000001 0.000000 1.000000
vn 0.000001 0.000000 1.000000
vn -0.000003 1.000000 0.000000
vn -0.000003 1.000000 0.000000
vn 0.000000 0.000000 1.000000
vn 0.000000 0.000000 1.000000
vn 0.000000 0.000000 1.000000
vn 0.000000 0.000000 1.000000
vn 0.000000 0.000000 1.000000
vn 0.000000 0.000000 1.000000
vn 0.000000 1.000000 0.000000
vn 0.000000 1.000000 0.000000
vn -0.000000 0.000000 1.000000
vn -0.000000 0.000000 1.000000
vn 0.000024 -1.000000 0.000000
vn 0.000024 -1.000000 0.000000
vn 0.000000 0.000000 1.000000
vn 0.000000 0.000000 1.000000
vn 0.000000 1.000000 0.000000
vn 0.000000 1.000000 0.000000
vn 0.000000 -1.000000 0.000000
vn 0.000000 -1.000000 0.000000
vn 0.000000 -1.000000 0.000000
vn 0.000000 -1.000000 0.000000
vn 1.000000 0.000000 0.000000
vn 1.000000 0.000000 0.000000
vn 1.000000 0.000000 0.000000
vn 1.000000 0.000000 0.000000
vn -1.000000 -0.000000 -0.000000
vn -1.000000 -0.000000 -0.000000
vn -1.000000 -0.000000 -0.000000
vn -1.000000 -0.000000 -0.000000
vn 0.000000 -1.000000 0.000000
vn 0.000000 -1.000000 0.000000
vn 0.000000 -1.000000 0.000000
vn 0.000000 -1.000000 0.000000
vn 1.000000 0.000000 0.000000
vn 1.000000 0.000000 0.000000
vn 1.000000 0.000000 0.000000
vn 1.000000 0.000000 0.000000
vn -1.000000 0.000000 0.000000
vn -1.000000 0.000000 0.000000
vn -1.000000 0.000000 0.000000
vn -1.000000 0.000000 0.000000
vn 0.000000 0.000000 1.000000
vn 0.000000 0.000000 1.000000
vn 0.000000 0.000000 1.000000
vn 0.000000 0.000000 1.000000
vn 0.000000 0.000000 1.000000
vn 0.000000 0.000000 1.000000
vn 0.000000 0.000000 1.000000
vn 0.000000 0.000000 1.000000
s off
g pCube2
usemtl initialShadingGroup
f 1/81/1 21/82/2 22/83/3 3/84/4
s 1
f 9/37/5 27/38/6 28/39/7 12/40/8
s off
f 2/1/9 8/2/10 6/3/11 4/4/12
f 7/7/13 1/8/14 3/9/15 5/10/16
s 2
f 17/111/17 24/112/18 25/113/19 20/114/20
s off
f 4/4/21 6/3/22 11/5/23 10/6/24
f 5/10/25 3/9/26 9/11/27 12/12/28
s 3
f 3/84/29 22/83/30 23/85/31 13/86/32
s off
f 4/101/33 10/107/34 15/108/35 14/102/36
s 4
f 26/93/37 27/94/38 9/89/39 16/90/40
s off
f 9/89/41 3/84/42 13/86/43 16/90/44
s 5
f 13/49/45 23/50/46 24/51/47 17/52/48
s off
f 14/13/49 15/14/50 19/15/51 18/16/52
s 6
f 25/61/53 26/62/54 16/63/55 20/64/56
s off
f 16/17/57 13/18/58 17/19/59 20/20/60
s 3
f 23/85/31 22/83/30 30/87/61 31/88/62
s 5
f 24/51/47 23/50/46 31/53/63 32/54/64
s 2
f 25/113/19 24/112/18 32/115/65 33/116/66
s 6
f 33/65/67 34/66/68 26/62/54 25/61/53
s 4
f 34/99/69 35/100/70 27/94/38 26/93/37
s 1
f 28/39/7 27/38/6 35/41/71 36/42/72
s off
f 30/87/73 29/95/74 37/96/75 38/91/76
s 3
f 31/88/62 30/87/61 38/91/77 39/92/78
s 5
f 32/54/64 31/53/63 39/55/79 40/56/80
s 2
f 33/116/66 32/115/65 40/117/81 41/118/82
s 6
f 41/67/83 42/68/84 34/66/68 33/65/67
s 4
f 42/103/85 43/104/86 35/100/70 34/99/69
s 1
f 36/42/72 35/41/71 43/43/87 44/44/88
s 3
f 39/92/78 38/91/77 46/97/89 47/98/90
s 5
f 40/56/80 39/55/79 47/57/91 48/58/92
s 2
f 41/118/82 40/117/81 48/119/93 49/120/94
s 6
f 49/69/95 50/70/96 42/68/84 41/67/83
s 4
f 50/109/97 51/110/98 43/104/86 42/103/85
s 1
f 44/44/88 43/43/87 51/45/99 52/46/100
s off
f 46/97/101 45/105/102 2/106/103 4/101/104
s 3
f 47/98/90 46/97/89 4/101/105 14/102/106
s 5
f 48/58/92 47/57/91 14/59/107 18/60/108
s 2
f 49/120/94 48/119/93 18/121/109 19/122/110
s 6
f 15/71/111 50/70/96 49/69/95 19/72/112
s 4
f 10/107/113 51/110/98 50/109/97 15/108/114
s 1
f 52/46/100 51/45/99 10/47/115 11/48/116
s off
f 30/73/117 22/74/118 53/75/119 54/76/120
f 22/21/121 21/22/122 55/23/123 53/24/124
f 29/25/125 30/26/126 54/27/127 56/28/128
f 46/77/129 38/78/130 57/79/131 58/80/132
f 38/29/133 37/30/134 59/31/135 57/32/136
f 45/33/137 46/34/138 58/35/139 60/36/140
f 54/123/141 53/124/142 55/125/143 56/126/144
f 58/127/145 57/128/146 59/129/147 60/130/148
